<svg viewBox="0 0 688 110" fill="none" xmlns="http://www.w3.org/2000/svg">
<g clip-path="url(#clip0_238_70)">
<path d="M47.638 26.6719C46.8181 26.6719 45.9983 26.4162 45.2877 25.8866C43.548 24.5807 43.1837 22.115 44.4861 20.3708L49.4048 13.7501L45.9436 6.86449C44.9687 4.91938 45.7432 2.54503 47.6833 1.5679C49.6235 0.590771 51.9919 1.367 52.9664 3.31213L57.5211 12.3803C58.1952 13.7135 58.0495 15.3117 57.1657 16.5171L50.7895 25.0921C50.0153 26.1332 48.8311 26.6811 47.6287 26.6811L47.638 26.6719Z"/>
<path d="M28.4087 26.6719C27.5889 26.6719 26.769 26.4162 26.0585 25.8866C24.3187 24.5807 23.9544 22.115 25.257 20.3708L30.1758 13.7501L26.7144 6.86449C25.7398 4.91938 26.514 2.54503 28.4542 1.5679C30.3944 0.590771 32.7628 1.367 33.7374 3.31213L38.2921 12.3803C38.9658 13.7135 38.8201 15.3117 37.9366 16.5171L31.5604 25.0921C30.7861 26.1332 29.602 26.6811 28.3996 26.6811L28.4087 26.6719Z"/>
<path d="M47.638 26.6719C46.8181 26.6719 45.9983 26.4162 45.2877 25.8866C43.548 24.5807 43.1837 22.115 44.4861 20.3708L49.4048 13.7501L45.9436 6.86449C44.9687 4.91938 45.7432 2.54503 47.6833 1.5679C49.6235 0.590771 51.9919 1.367 52.9664 3.31213L57.5211 12.3803C58.1952 13.7135 58.0495 15.3117 57.1657 16.5171L50.7895 25.0921C50.0153 26.1332 48.8311 26.6811 47.6287 26.6811L47.638 26.6719Z"/>
<path d="M28.4087 26.6719C27.5889 26.6719 26.769 26.4162 26.0585 25.8866C24.3187 24.5807 23.9544 22.115 25.257 20.3708L30.1758 13.7501L26.7144 6.86449C25.7398 4.91938 26.514 2.54503 28.4542 1.5679C30.3944 0.590771 32.7628 1.367 33.7374 3.31213L38.2921 12.3803C38.9658 13.7135 38.8201 15.3117 37.9366 16.5171L31.5604 25.0921C30.7861 26.1332 29.602 26.6811 28.3996 26.6811L28.4087 26.6719Z"/>
<path d="M63.7605 108.924H27.3247C25.6941 108.924 24.1912 108.057 23.3805 106.642L0.608025 67.0997C-0.202675 65.6841 -0.202675 63.9492 0.608025 62.5337L23.3805 22.9918C24.1912 21.5763 25.6941 20.7087 27.3247 20.7087H63.7605C65.3912 20.7087 66.8941 21.5763 67.7047 22.9918L90.4771 62.5337C91.288 63.9492 91.288 65.6841 90.4771 67.0997L67.7047 106.642C66.8941 108.057 65.3912 108.924 63.7605 108.924ZM29.9572 99.7924H61.1373L81.2773 64.8165L61.1373 29.8408H29.9572L9.81719 64.8165L29.9572 99.7924Z"/>
<path d="M95.7512 108.924H59.3154C57.685 108.924 56.1818 108.057 55.3712 106.642L32.5987 67.0997C31.788 65.6841 31.788 63.9492 32.5987 62.5337L55.3712 22.9918C56.1818 21.5763 57.685 20.7087 59.3154 20.7087H95.7512C97.3819 20.7087 98.8848 21.5763 99.6954 22.9918L114.616 48.8995C115.873 51.082 115.126 53.8763 112.949 55.1365C110.772 56.3967 107.985 55.648 106.727 53.4655L93.1188 29.8408H61.9389L41.7989 64.8165L61.9389 99.7924H93.1188L108.039 73.8939C109.296 71.7114 112.084 70.9624 114.261 72.2226C116.438 73.4828 117.185 76.2775 115.928 78.4599L99.6954 106.642C98.8848 108.057 97.3819 108.924 95.7512 108.924Z"/>
<path d="M113.796 68.3234C116.629 68.3234 118.925 66.0216 118.925 63.1819C118.925 60.3425 116.629 58.0408 113.796 58.0408C110.964 58.0408 108.668 60.3425 108.668 63.1819C108.668 66.0216 110.964 68.3234 113.796 68.3234Z"/>
<path d="M63.7604 108.924H27.3245C24.8104 108.924 22.77 106.879 22.77 104.358C22.77 101.838 24.8104 99.7924 27.3245 99.7924H61.128L81.2679 64.8165L61.128 29.8408H27.3245C24.8104 29.8408 22.77 27.7952 22.77 25.2748C22.77 22.7543 24.8104 20.7087 27.3245 20.7087H63.7604C65.3908 20.7087 66.894 21.5763 67.7046 22.9918L90.477 62.5337C91.2876 63.9492 91.2876 65.6841 90.477 67.0997L67.7046 106.642C66.894 108.057 65.3908 108.924 63.7604 108.924Z"/>
<path d="M95.7512 108.924H59.3154C57.685 108.924 56.1818 108.057 55.3712 106.642L32.5987 67.0997C31.788 65.6841 31.788 63.9492 32.5987 62.5337L55.3712 22.9918C56.1818 21.5763 57.685 20.7087 59.3154 20.7087H95.7512C98.2654 20.7087 100.306 22.7543 100.306 25.2748C100.306 27.7952 98.2654 29.8408 95.7512 29.8408H61.9478L41.8079 64.8165L61.9478 99.7924H95.7512C98.2654 99.7924 100.306 101.838 100.306 104.358C100.306 106.879 98.2654 108.924 95.7512 108.924Z"/>
<path d="M38.9475 97.2445C38.7928 97.2445 38.6378 97.1623 38.556 97.0162L19.9372 64.6246C19.8552 64.4785 19.8552 64.3053 19.9372 64.1592L40.8241 29.3385C40.9516 29.1194 41.2341 29.0554 41.4528 29.1833C41.6714 29.3111 41.735 29.5942 41.6075 29.8134L20.8572 64.4057L39.3394 96.5597C39.4669 96.7787 39.3941 97.0526 39.1754 97.1805C39.1026 97.2262 39.0204 97.2445 38.9475 97.2445Z"/>
<path d="M169.816 44.6621C178.124 44.6621 185.229 47.8218 191.113 54.1321C196.998 60.4423 199.94 68.177 199.94 77.3366C199.94 86.4961 196.998 94.2308 191.113 100.541C185.229 106.852 178.133 110.011 169.816 110.011C161.5 110.011 154.513 106.998 149.822 100.98V108.285H133.9V21.6493H149.822V53.7027C154.513 47.6847 161.181 44.6714 169.816 44.6714V44.6621ZM154.632 89.8931C157.838 93.1532 161.919 94.7788 166.856 94.7788C171.793 94.7788 175.883 93.1532 179.135 89.8931C182.387 86.6329 184.008 82.4505 184.008 77.3366C184.008 72.2226 182.387 68.0402 179.135 64.7801C175.883 61.5199 171.793 59.8943 166.856 59.8943C161.919 59.8943 157.847 61.5199 154.632 64.7801C151.425 68.0402 149.822 72.2226 149.822 77.3366C149.822 82.4505 151.425 86.6422 154.632 89.8931Z"/>
<path d="M224.616 83.8936C226.756 91.6465 232.559 95.5278 242.023 95.5278C248.108 95.5278 252.717 93.4639 255.851 89.3362L268.685 96.7605C262.591 105.591 253.628 110.002 241.777 110.002C231.575 110.002 223.386 106.906 217.21 100.724C211.035 94.5416 207.956 86.7426 207.956 77.3366C207.956 67.9305 210.998 60.2415 217.092 54.0135C223.177 47.7854 231.001 44.6714 240.548 44.6714C249.602 44.6714 257.062 47.8036 262.946 54.0774C268.831 60.3509 271.773 68.1041 271.773 77.3459C271.773 79.4097 271.564 81.5922 271.154 83.9025H224.616V83.8936ZM255.841 71.5196C254.93 67.3097 253.063 64.1775 250.221 62.1136C247.379 60.0497 244.155 59.0178 240.529 59.0178C236.248 59.0178 232.714 60.1137 229.918 62.2961C227.121 64.4879 225.272 67.5562 224.361 71.5196H255.841Z"/>
<path d="M295.839 83.8936C297.98 91.6465 303.782 95.5278 313.246 95.5278C319.331 95.5278 323.94 93.4639 327.074 89.3362L339.908 96.7605C333.814 105.591 324.851 110.002 313.001 110.002C302.798 110.002 294.609 106.906 288.433 100.724C282.258 94.5416 279.179 86.7426 279.179 77.3366C279.179 67.9305 282.221 60.2415 288.315 54.0135C294.4 47.7854 302.224 44.6714 311.771 44.6714C320.825 44.6714 328.285 47.8036 334.17 54.0774C340.054 60.3509 342.996 68.1041 342.996 77.3459C342.996 79.4097 342.787 81.5922 342.377 83.9025H295.839V83.8936ZM327.065 71.5196C326.154 67.3097 324.287 64.1775 321.444 62.1136C318.602 60.0497 315.378 59.0178 311.752 59.0178C307.471 59.0178 303.937 60.1137 301.14 62.2961C298.344 64.4879 296.495 67.5562 295.584 71.5196H327.065Z"/>
<path d="M382.986 110.002C373.684 110.002 365.932 106.87 359.721 100.596C353.509 94.3316 350.402 86.569 350.402 77.3276C350.402 68.0859 353.509 60.3326 359.721 54.0589C365.932 47.7944 373.684 44.6528 382.986 44.6528C388.988 44.6528 394.464 46.0959 399.4 48.9817C404.336 51.8675 408.079 55.7484 410.63 60.6159L396.932 68.661C395.691 66.1042 393.824 64.0861 391.311 62.5976C388.795 61.1088 385.983 60.3694 382.858 60.3694C378.084 60.3694 374.131 61.9582 371.006 65.1362C367.881 68.3142 366.314 72.378 366.314 77.3276C366.314 82.277 367.874 86.2222 371.006 89.3909C374.131 92.5688 378.084 94.158 382.858 94.158C386.062 94.158 388.922 93.4365 391.438 91.9937C393.944 90.5507 395.818 88.5507 397.059 85.9939L410.884 93.9112C408.172 98.7787 404.346 102.678 399.407 105.61C394.47 108.541 388.998 110.002 382.993 110.002H382.986Z"/>
<path d="M435.689 57.0361C437.174 53.0726 439.615 50.1047 443.032 48.1233C446.445 46.1416 450.254 45.1554 454.455 45.1554V62.972C449.597 62.3965 445.252 63.3827 441.427 65.9399C437.601 68.4967 435.689 72.7431 435.689 78.6882V108.267H419.767V46.3974H435.689V57.0361Z"/>
<path d="M513.944 100.532C507.605 106.842 499.871 110.002 490.734 110.002C481.597 110.002 473.883 106.842 467.589 100.532C461.295 94.2219 458.143 86.4869 458.143 77.3276C458.143 68.1681 461.295 60.4334 467.589 54.1228C473.883 47.8126 481.597 44.6528 490.734 44.6528C499.871 44.6528 507.605 47.8126 513.944 54.1228C520.283 60.4334 523.445 68.1681 523.445 77.3276C523.445 86.4869 520.276 94.2219 513.944 100.532ZM478.83 89.5827C481.999 92.7971 485.97 94.4137 490.744 94.4137C495.516 94.4137 499.507 92.8064 502.714 89.5827C505.921 86.3683 507.523 82.277 507.523 77.3276C507.523 72.378 505.921 68.296 502.714 65.0723C499.507 61.8486 495.509 60.2415 490.744 60.2415C485.98 60.2415 481.999 61.8486 478.83 65.0723C475.661 68.2867 474.076 72.3687 474.076 77.3276C474.076 82.2862 475.661 86.359 478.83 89.5827Z"/>
<path d="M616.993 46.3973L598.995 108.267H583.392L571.715 70.7706L560.037 108.267H544.431L526.288 46.3973H543.121L553.688 84.3865L564.929 46.3973H579.992L591.233 84.5237L601.7 46.3973H616.993Z"/>
<path d="M671.574 21.6493H687.497V108.276H671.574V100.97C666.885 106.998 660.217 110.002 651.582 110.002C642.947 110.002 636.168 106.842 630.283 100.532C624.401 94.2219 621.459 86.4868 621.459 77.3276C621.459 68.168 624.401 60.4333 630.283 54.1228C636.168 47.8125 643.266 44.6528 651.582 44.6528C659.897 44.6528 666.885 47.6665 671.574 53.6845V21.6493ZM642.262 89.893C645.514 93.1532 649.605 94.7788 654.541 94.7788C659.478 94.7788 663.551 93.1532 666.765 89.893C669.972 86.6329 671.584 82.4505 671.584 77.3365C671.584 72.2226 669.983 68.0402 666.765 64.7801C663.558 61.5199 659.488 59.8943 654.541 59.8943C649.595 59.8943 645.504 61.5199 642.262 64.7801C639.021 68.0402 637.388 72.2226 637.388 77.3365C637.388 82.4505 639.011 86.6422 642.262 89.893Z"/>
</g>
<defs>
<clipPath id="clip0_238_70">
<rect width="687.5" height="110" fill="white"/>
</clipPath>
</defs>
</svg>
