<svg viewBox="0 0 321 75" fill="none" xmlns="http://www.w3.org/2000/svg">
<path d="M40.2146 0C35.9876 0 30.5972 5.39038 30.5972 14.7751V19.3511C27.8051 17.5673 24.5476 16.5977 20.4757 16.5977C8.9581 16.6365 0 25.711 0 36.9571C0 48.2032 8.57036 57.2777 20.3982 57.2777C26.0987 57.2777 30.5972 55.2223 33.5444 52.3914C35.4835 55.0673 37.8878 56.5408 39.9819 56.5408C41.6106 56.5408 42.425 55.6489 42.425 53.6711V2.6758C42.425 0.891937 41.6106 0 40.2146 0ZM21.2901 46.6132C15.5894 46.6132 11.983 42.4638 11.983 36.9183C11.983 31.3728 15.5894 27.2234 21.2901 27.2234C26.9907 27.2234 30.5972 31.3728 30.5972 36.9183C30.5972 42.5026 26.9907 46.6132 21.2901 46.6132ZM86.0908 18.1101H82.0966C79.227 18.1101 78.1799 19.2735 78.1799 22.0269V36.6468C78.1799 42.5413 75.1552 46.0315 70.2689 46.0315C65.2275 46.0315 62.668 42.6965 62.668 36.4918V22.0269C62.668 19.1572 61.5047 18.1101 58.7513 18.1101H54.757C52.0036 18.1101 50.8402 19.1572 50.8402 22.0269V36.802C50.8402 49.4442 57.2002 57.2777 68.3687 57.2777C73.3325 57.2777 77.7534 55.3387 80.8556 51.9649C82.7175 54.9121 85.2763 56.5408 87.5647 56.5408C88.9609 56.5408 90.0074 55.6489 90.0074 53.6711V22.0269C90.0074 19.1572 88.8441 18.1101 86.0908 18.1101ZM117.58 57.2777C129.563 57.2777 138.482 48.2032 138.482 36.9571C138.482 25.4395 129.525 16.6365 117.58 16.6365C105.675 16.6365 96.6781 25.711 96.6781 36.9571C96.6781 48.4746 105.675 57.2777 117.58 57.2777ZM117.58 46.6132C112.19 46.6132 108.622 42.4638 108.622 36.9183C108.622 31.3728 112.151 27.2234 117.58 27.2234C123.049 27.2234 126.539 31.3728 126.539 36.9183C126.499 42.5026 123.049 46.6132 117.58 46.6132ZM148.914 55.804H152.908C155.623 55.804 156.825 54.757 156.825 51.8872V2.8697C156.825 0.891937 156.011 0 154.382 0C150.388 0 144.997 5.39038 144.997 14.7751V51.8872C144.997 54.757 146.161 55.804 148.914 55.804ZM171.91 12.7197C175.517 12.7197 178.581 9.9276 178.581 6.35987C178.581 2.79214 175.517 0 171.91 0C168.227 0 165.241 2.79214 165.241 6.35987C165.241 9.9276 168.187 12.7197 171.91 12.7197ZM169.894 55.804H173.888C176.758 55.804 177.805 54.6406 177.805 51.8872V22.0269C177.805 19.2735 176.758 18.1101 173.888 18.1101H169.894C167.024 18.1101 165.978 19.2735 165.978 22.0269V51.8872C165.978 54.6019 167.024 55.804 169.894 55.804ZM208.906 16.6365C204.02 16.6365 199.367 18.6143 196.109 22.1044C194.17 19.002 191.611 17.3733 189.4 17.3733C187.771 17.3733 186.957 18.2653 186.957 20.243V51.8872C186.957 54.757 188.121 55.804 190.874 55.804H194.868C197.738 55.804 198.785 54.6406 198.785 51.8872V37.2285C198.785 31.3728 202.197 27.8439 207.2 27.8439C212.281 27.8439 214.956 31.2565 214.956 37.3837V51.8872C214.956 54.757 216.12 55.804 218.873 55.804H222.867C225.62 55.804 226.784 54.757 226.784 51.8872V36.802C226.784 24.47 220.502 16.6365 208.906 16.6365ZM265.951 44.1313C269.441 41.5331 271.575 37.6163 271.575 33.1179C271.575 31.2565 271.186 29.5889 270.45 27.9602C274.367 26.0212 275.84 22.4923 275.84 19.1572C275.84 15.8221 274.521 14.8526 272.583 15.7446C265.641 18.9245 264.672 19.0796 260.096 18.2653C257.226 17.7611 255.132 17.3733 252.34 17.3733C247.182 17.3733 242.955 19.002 239.387 21.9493C236.052 24.7415 234.346 28.8133 234.346 33.1179C234.346 37.6163 236.401 41.5331 239.969 44.1313C235.315 46.5744 232.058 51.7322 232.058 57.8594C232.058 67.9808 240.202 75 252.883 75C266.184 75 273.785 67.2441 273.785 57.1225C273.863 50.9953 270.605 46.4194 265.951 44.1313ZM252.96 26.9907C257.265 26.9907 259.902 29.2011 259.902 33.6608C259.902 37.1898 256.955 40.3309 252.96 40.3309C248.966 40.3309 246.096 37.2285 246.096 33.6608C246.096 29.4726 248.811 26.9907 252.96 26.9907ZM252.96 65.2663C247.803 65.2663 243.963 61.9313 243.963 57.6655C243.963 52.9344 247.57 50.0646 252.96 50.0646C258.429 50.0646 262.035 52.9344 262.035 57.6655C262.035 62.0088 258.273 65.2663 252.96 65.2663ZM299.147 57.2777C311.13 57.2777 320.049 48.2032 320.049 36.9571C320.049 25.4395 311.091 16.6365 299.147 16.6365C287.242 16.6365 278.244 25.711 278.244 36.9571C278.244 48.4746 287.242 57.2777 299.147 57.2777ZM299.147 46.6132C293.756 46.6132 290.189 42.4638 290.189 36.9183C290.189 31.3728 293.718 27.2234 299.147 27.2234C304.615 27.2234 308.105 31.3728 308.105 36.9183C308.105 42.5026 304.615 46.6132 299.147 46.6132Z" />
</svg>
