<svg width="400" height="300" viewBox="0 0 400 300" fill="none" xmlns="http://www.w3.org/2000/svg">
<path d="M245.103 75.1165L104.253 107.919C98.6854 109.216 95.2234 114.78 96.52 120.347L115.818 203.21C117.114 208.777 122.679 212.239 128.246 210.942L269.096 178.139C274.664 176.843 278.126 171.279 276.829 165.712L257.531 82.8491C256.235 77.282 250.67 73.8199 245.103 75.1165Z" fill="#F56132"/>
<path d="M125.9 212.21C123.34 212.206 120.856 211.338 118.851 209.746C116.845 208.154 115.436 205.932 114.85 203.44L95.5501 120.57C94.8688 117.642 95.3755 114.564 96.9593 112.009C98.5432 109.455 101.075 107.632 104 106.94L244.88 74.13C247.812 73.4495 250.894 73.9604 253.449 75.5503C256.005 77.1402 257.825 79.6793 258.51 82.61L277.81 165.48C278.15 166.93 278.2 168.434 277.958 169.904C277.716 171.374 277.187 172.782 276.4 174.047C275.613 175.312 274.585 176.409 273.373 177.276C272.162 178.143 270.791 178.763 269.34 179.1L128.48 211.92C127.634 212.115 126.768 212.212 125.9 212.21ZM247.46 75.83C246.746 75.8298 246.034 75.9137 245.34 76.08L104.48 108.89C103.283 109.166 102.152 109.675 101.152 110.388C100.152 111.102 99.3027 112.006 98.6524 113.048C98.0022 114.09 97.564 115.25 97.3628 116.462C97.1616 117.674 97.2015 118.914 97.4801 120.11L116.8 203C117.362 205.411 118.856 207.5 120.955 208.812C123.054 210.124 125.587 210.551 128 210L268.85 177.19C270.047 176.913 271.177 176.403 272.176 175.689C273.175 174.976 274.024 174.072 274.674 173.03C275.324 171.988 275.763 170.828 275.964 169.617C276.166 168.406 276.127 167.166 275.85 165.97L256.56 83.06C256.08 81.0057 254.92 79.1738 253.268 77.8614C251.616 76.5491 249.57 75.8332 247.46 75.83Z" fill="#093F68"/>
<path d="M100.156 135.962L261.167 98.4637L265.937 118.946L104.926 156.444L100.156 135.962Z" fill="#093F68"/>
<path d="M104.93 157.44C104.699 157.446 104.473 157.371 104.291 157.229C104.108 157.087 103.981 156.886 103.93 156.66L99.1601 136.18C99.0999 135.924 99.143 135.654 99.2801 135.43C99.3488 135.318 99.4389 135.22 99.5453 135.143C99.6517 135.066 99.7722 135.011 99.9001 134.98L260.9 97.47C261.028 97.4403 261.161 97.4362 261.29 97.4579C261.42 97.4796 261.544 97.5266 261.656 97.5962C261.767 97.6659 261.864 97.7568 261.94 97.8638C262.016 97.9709 262.071 98.0919 262.1 98.22L266.88 118.7C266.91 118.829 266.914 118.963 266.891 119.093C266.869 119.223 266.821 119.348 266.75 119.46C266.609 119.683 266.387 119.841 266.13 119.9L105.13 157.41C105.065 157.427 104.998 157.437 104.93 157.44ZM101.36 136.7L105.68 155.23L264.74 118.23L260.42 99.7L101.36 136.7Z" fill="#093F68"/>
<path d="M293.4 119.38H148.78C143.064 119.38 138.43 124.014 138.43 129.73V214.81C138.43 220.526 143.064 225.16 148.78 225.16H293.4C299.116 225.16 303.75 220.526 303.75 214.81V129.73C303.75 124.014 299.116 119.38 293.4 119.38Z" fill="#10A37F"/>
<path d="M293.4 226.17H148.77C145.762 226.165 142.879 224.967 140.754 222.839C138.628 220.712 137.433 217.828 137.43 214.82V129.73C137.433 126.722 138.628 123.838 140.754 121.711C142.879 119.583 145.762 118.385 148.77 118.38H293.4C296.409 118.383 299.295 119.579 301.423 121.707C303.551 123.835 304.747 126.721 304.75 129.73V214.82C304.747 217.829 303.551 220.715 301.423 222.843C299.295 224.971 296.409 226.167 293.4 226.17ZM148.77 120.38C146.293 120.385 143.919 121.372 142.168 123.125C140.417 124.878 139.433 127.253 139.43 129.73V214.82C139.43 217.298 140.414 219.675 142.165 221.428C143.916 223.181 146.292 224.167 148.77 224.17H293.4C295.88 224.17 298.258 223.185 300.011 221.431C301.765 219.678 302.75 217.3 302.75 214.82V129.73C302.747 127.251 301.761 124.874 300.008 123.121C298.256 121.369 295.879 120.383 293.4 120.38H148.77Z" fill="#093F68"/>
<path d="M253.3 165.8C259.723 165.8 264.93 160.593 264.93 154.17C264.93 147.747 259.723 142.54 253.3 142.54C246.877 142.54 241.67 147.747 241.67 154.17C241.67 160.593 246.877 165.8 253.3 165.8Z" fill="#FFBC0E"/>
<path d="M253.3 166.8C250.802 166.802 248.359 166.063 246.28 164.676C244.202 163.29 242.582 161.318 241.624 159.01C240.667 156.703 240.415 154.163 240.901 151.712C241.388 149.262 242.59 147.01 244.356 145.243C246.122 143.475 248.372 142.272 250.822 141.783C253.273 141.295 255.812 141.545 258.121 142.5C260.429 143.456 262.402 145.075 263.791 147.152C265.179 149.229 265.92 151.672 265.92 154.17C265.915 157.516 264.584 160.724 262.218 163.091C259.853 165.459 256.646 166.792 253.3 166.8ZM253.3 143.55C251.197 143.548 249.14 144.17 247.39 145.337C245.641 146.505 244.277 148.165 243.471 150.107C242.665 152.05 242.454 154.188 242.864 156.251C243.274 158.314 244.286 160.209 245.773 161.697C247.261 163.184 249.156 164.196 251.219 164.606C253.282 165.016 255.42 164.805 257.362 163.999C259.305 163.193 260.965 161.829 262.133 160.08C263.3 158.33 263.922 156.273 263.92 154.17C263.915 151.355 262.794 148.657 260.804 146.666C258.813 144.676 256.115 143.555 253.3 143.55Z" fill="#093F68"/>
<path d="M271.46 165.8C277.883 165.8 283.09 160.593 283.09 154.17C283.09 147.747 277.883 142.54 271.46 142.54C265.037 142.54 259.83 147.747 259.83 154.17C259.83 160.593 265.037 165.8 271.46 165.8Z" fill="#F56132"/>
<path d="M271.46 166.8C268.962 166.802 266.519 166.063 264.441 164.676C262.362 163.29 260.742 161.318 259.784 159.01C258.827 156.703 258.575 154.163 259.062 151.712C259.548 149.262 260.75 147.01 262.516 145.243C264.282 143.475 266.532 142.272 268.982 141.783C271.433 141.295 273.973 141.545 276.281 142.5C278.589 143.456 280.563 145.075 281.951 147.152C283.339 149.229 284.08 151.672 284.08 154.17C284.075 157.516 282.744 160.724 280.379 163.091C278.013 165.459 274.806 166.792 271.46 166.8ZM271.46 143.55C269.357 143.548 267.3 144.17 265.551 145.337C263.801 146.505 262.437 148.165 261.631 150.107C260.825 152.05 260.614 154.188 261.024 156.251C261.434 158.314 262.446 160.209 263.934 161.697C265.421 163.184 267.316 164.196 269.379 164.606C271.442 165.016 273.58 164.805 275.523 163.999C277.465 163.193 279.125 161.829 280.293 160.08C281.46 158.33 282.082 156.273 282.08 154.17C282.075 151.355 280.954 148.657 278.964 146.666C276.973 144.676 274.275 143.555 271.46 143.55Z" fill="#093F68"/>
<path d="M173.38 166.74H162.27C160.409 166.74 158.623 166.004 157.302 164.693C155.982 163.381 155.233 161.601 155.22 159.74V148.59C155.22 147.667 155.403 146.752 155.758 145.9C156.112 145.047 156.633 144.273 157.288 143.623C157.943 142.972 158.721 142.457 159.576 142.108C160.431 141.76 161.347 141.583 162.27 141.59H173.38C175.236 141.59 177.017 142.328 178.33 143.64C179.642 144.953 180.38 146.734 180.38 148.59V159.7C180.377 161.559 179.64 163.343 178.329 164.661C177.018 165.98 175.239 166.727 173.38 166.74ZM162.27 143.55C161.609 143.543 160.954 143.668 160.341 143.916C159.729 144.164 159.172 144.532 158.702 144.997C158.232 145.462 157.86 146.015 157.605 146.625C157.351 147.235 157.22 147.889 157.22 148.55V159.7C157.22 160.361 157.351 161.015 157.605 161.625C157.86 162.235 158.232 162.788 158.702 163.253C159.172 163.718 159.729 164.086 160.341 164.334C160.954 164.582 161.609 164.707 162.27 164.7H173.38C174.706 164.7 175.978 164.173 176.915 163.236C177.853 162.298 178.38 161.026 178.38 159.7V148.59C178.38 147.264 177.853 145.992 176.915 145.054C175.978 144.117 174.706 143.59 173.38 143.59L162.27 143.55Z" fill="#093F68"/>
<path d="M183.69 203H156.22C155.955 203 155.7 202.895 155.513 202.707C155.325 202.52 155.22 202.265 155.22 202V190.29C155.22 190.025 155.325 189.77 155.513 189.583C155.7 189.395 155.955 189.29 156.22 189.29H183.69C183.955 189.29 184.21 189.395 184.397 189.583C184.585 189.77 184.69 190.025 184.69 190.29V202C184.69 202.265 184.585 202.52 184.397 202.707C184.21 202.895 183.955 203 183.69 203ZM157.22 201H182.69V191.29H157.22V201Z" fill="#093F68"/>
<path d="M217.78 203H190.31C190.045 203 189.79 202.895 189.603 202.707C189.415 202.52 189.31 202.265 189.31 202V190.29C189.31 190.025 189.415 189.77 189.603 189.583C189.79 189.395 190.045 189.29 190.31 189.29H217.78C218.045 189.29 218.3 189.395 218.487 189.583C218.675 189.77 218.78 190.025 218.78 190.29V202C218.78 202.265 218.675 202.52 218.487 202.707C218.3 202.895 218.045 203 217.78 203ZM191.31 201H216.78V191.29H191.31V201Z" fill="#093F68"/>
<path d="M251.86 203H224.4C224.135 203 223.88 202.895 223.693 202.707C223.505 202.52 223.4 202.265 223.4 202V190.29C223.4 190.025 223.505 189.77 223.693 189.583C223.88 189.395 224.135 189.29 224.4 189.29H251.86C252.125 189.29 252.379 189.395 252.567 189.583C252.755 189.77 252.86 190.025 252.86 190.29V202C252.86 202.265 252.755 202.52 252.567 202.707C252.379 202.895 252.125 203 251.86 203ZM225.4 201H250.86V191.29H225.4V201Z" fill="#093F68"/>
<path d="M286 203H258.49C258.225 203 257.97 202.895 257.783 202.707C257.595 202.52 257.49 202.265 257.49 202V190.29C257.49 190.025 257.595 189.77 257.783 189.583C257.97 189.395 258.225 189.29 258.49 189.29H286C286.265 189.29 286.52 189.395 286.707 189.583C286.895 189.77 287 190.025 287 190.29V202C287 202.265 286.895 202.52 286.707 202.707C286.52 202.895 286.265 203 286 203ZM259.54 201H285V191.29H259.49L259.54 201Z" fill="#093F68"/>
</svg>
