<svg width="400" height="300" viewBox="0 0 400 300" fill="none" xmlns="http://www.w3.org/2000/svg">
<path d="M207.08 232.69V67.46C207.095 66.7777 206.851 66.115 206.396 65.6063C205.941 65.0975 205.31 64.7807 204.63 64.72C204.278 64.7009 203.926 64.7538 203.596 64.8754C203.265 64.997 202.963 65.1848 202.707 65.4272C202.452 65.6697 202.248 65.9617 202.11 66.2854C201.971 66.6091 201.899 66.9577 201.9 67.31V232.69C201.9 233.377 202.173 234.036 202.659 234.521C203.144 235.007 203.803 235.28 204.49 235.28C205.177 235.28 205.836 235.007 206.321 234.521C206.807 234.036 207.08 233.377 207.08 232.69Z" fill="#093F68"/>
<path d="M204.49 236.28C203.538 236.28 202.625 235.902 201.951 235.228C201.278 234.555 200.9 233.642 200.9 232.69V67.3099C200.898 66.8217 200.996 66.3381 201.187 65.889C201.379 65.4399 201.66 65.0348 202.015 64.6985C202.369 64.3622 202.788 64.102 203.246 63.9337C203.704 63.7654 204.192 63.6927 204.68 63.7199C205.618 63.7889 206.494 64.2154 207.126 64.9114C207.759 65.6073 208.1 66.5196 208.08 67.4599V232.69C208.08 233.642 207.702 234.555 207.028 235.228C206.355 235.902 205.442 236.28 204.49 236.28ZM204.49 65.7199C204.28 65.7173 204.072 65.7565 203.878 65.8355C203.684 65.9145 203.508 66.0315 203.36 66.1797C203.211 66.3278 203.094 66.5042 203.016 66.6983C202.937 66.8924 202.897 67.1004 202.9 67.3099V232.69C202.9 233.112 203.067 233.516 203.366 233.814C203.664 234.112 204.068 234.28 204.49 234.28C204.912 234.28 205.316 234.112 205.614 233.814C205.912 233.516 206.08 233.112 206.08 232.69V67.4599C206.095 67.0343 205.949 66.6185 205.671 66.2959C205.393 65.9733 205.003 65.7676 204.58 65.7199H204.49Z" fill="#093F68"/>
<path d="M156.53 233.47C165.53 205.14 173.63 180.47 181.67 156.67C181.899 156.049 181.89 155.365 181.644 154.75C181.398 154.135 180.934 153.633 180.34 153.34C180.01 153.189 179.652 153.11 179.289 153.106C178.927 153.103 178.567 153.176 178.235 153.32C177.902 153.464 177.603 153.677 177.358 153.944C177.112 154.211 176.926 154.526 176.81 154.87C168.74 178.73 160.64 203.49 151.59 231.87C151.465 232.259 151.435 232.671 151.5 233.074C151.565 233.477 151.725 233.859 151.965 234.188C152.206 234.518 152.521 234.786 152.885 234.97C153.249 235.155 153.652 235.251 154.06 235.25C154.607 235.252 155.14 235.081 155.584 234.761C156.028 234.441 156.359 233.989 156.53 233.47Z" fill="#093F68"/>
<path d="M154.06 236.28C153.494 236.28 152.936 236.147 152.431 235.891C151.927 235.634 151.49 235.262 151.157 234.805C150.823 234.348 150.603 233.818 150.513 233.26C150.423 232.701 150.467 232.129 150.64 231.59C159.72 203.05 167.74 178.59 175.86 154.59C176.023 154.115 176.283 153.678 176.625 153.309C176.966 152.94 177.38 152.647 177.842 152.447C178.303 152.248 178.801 152.147 179.303 152.151C179.806 152.154 180.302 152.263 180.76 152.47C181.574 152.871 182.213 153.557 182.556 154.397C182.898 155.237 182.921 156.174 182.62 157.03C174.52 181.03 166.53 205.39 157.48 233.81C157.248 234.532 156.79 235.162 156.175 235.606C155.56 236.05 154.819 236.287 154.06 236.28ZM179.26 154.11C178.928 154.11 178.605 154.214 178.336 154.408C178.066 154.602 177.865 154.875 177.76 155.19C169.64 179.19 161.63 203.67 152.54 232.19C152.464 232.43 152.446 232.685 152.487 232.934C152.529 233.183 152.629 233.418 152.78 233.62C152.925 233.823 153.117 233.989 153.34 234.102C153.563 234.215 153.81 234.273 154.06 234.27C154.397 234.266 154.725 234.157 154.998 233.958C155.27 233.759 155.474 233.48 155.58 233.16C164.58 204.72 172.58 180.31 180.73 156.34C180.839 156.096 180.885 155.829 180.864 155.563C180.843 155.297 180.755 155.041 180.608 154.817C180.462 154.594 180.262 154.412 180.026 154.286C179.79 154.161 179.527 154.097 179.26 154.1V154.11Z" fill="#093F68"/>
<path d="M254.92 235.28C255.327 235.278 255.729 235.181 256.091 234.996C256.454 234.811 256.769 234.543 257.009 234.214C257.249 233.885 257.409 233.504 257.475 233.102C257.541 232.7 257.512 232.289 257.39 231.9C248.39 203.52 240.26 178.79 232.2 154.96C232.014 154.376 231.631 153.874 231.117 153.541C230.603 153.207 229.989 153.062 229.38 153.13C229 153.179 228.635 153.312 228.313 153.519C227.99 153.727 227.718 154.003 227.515 154.328C227.312 154.653 227.184 155.02 227.14 155.4C227.096 155.781 227.137 156.167 227.26 156.53C235.31 180.36 243.41 205.09 252.44 233.47C252.609 233.995 252.94 234.453 253.386 234.778C253.831 235.103 254.368 235.279 254.92 235.28Z" fill="#093F68"/>
<path d="M254.92 236.28C254.155 236.283 253.409 236.041 252.792 235.589C252.175 235.137 251.718 234.5 251.49 233.77C242.42 205.28 234.42 180.84 226.31 156.85C226.143 156.355 226.088 155.829 226.149 155.311C226.209 154.792 226.384 154.293 226.66 153.85C226.94 153.396 227.318 153.011 227.766 152.722C228.214 152.433 228.721 152.248 229.25 152.18C230.089 152.079 230.937 152.273 231.649 152.73C232.361 153.186 232.891 153.875 233.15 154.68C241.25 178.68 249.26 203.12 258.34 231.68C258.511 232.218 258.553 232.789 258.463 233.347C258.372 233.904 258.151 234.432 257.818 234.888C257.485 235.344 257.049 235.715 256.545 235.971C256.041 236.227 255.485 236.36 254.92 236.36V236.28ZM229.71 154.11H229.52C229.285 154.139 229.06 154.22 228.861 154.347C228.661 154.474 228.492 154.643 228.366 154.843C228.24 155.043 228.16 155.268 228.131 155.503C228.102 155.738 228.126 155.976 228.2 156.2C236.32 180.2 244.32 204.65 253.4 233.2C253.505 233.521 253.708 233.801 253.981 234C254.254 234.199 254.582 234.308 254.92 234.31C255.17 234.31 255.417 234.25 255.641 234.136C255.864 234.022 256.057 233.857 256.204 233.654C256.351 233.451 256.448 233.217 256.488 232.969C256.527 232.722 256.507 232.468 256.43 232.23C247.36 203.73 239.36 179.28 231.25 155.31C231.15 154.974 230.948 154.678 230.672 154.463C230.396 154.248 230.06 154.125 229.71 154.11Z" fill="#093F68"/>
<path d="M204.49 213.58C242.686 213.58 273.65 182.616 273.65 144.42C273.65 106.224 242.686 75.26 204.49 75.26C166.294 75.26 135.33 106.224 135.33 144.42C135.33 182.616 166.294 213.58 204.49 213.58Z" fill="#10A37F"/>
<path d="M204.49 214.59C190.611 214.592 177.044 210.478 165.503 202.769C153.962 195.06 144.967 184.102 139.654 171.28C134.342 158.458 132.951 144.349 135.657 130.737C138.363 117.124 145.046 104.62 154.859 94.8059C164.672 84.9914 177.175 78.3074 190.787 75.5991C204.399 72.8907 218.508 74.2797 231.331 79.5904C244.153 84.9012 255.113 93.895 262.823 105.435C270.534 116.974 274.65 130.541 274.65 144.42C274.629 163.022 267.23 180.856 254.078 194.011C240.925 207.165 223.092 214.566 204.49 214.59ZM204.49 76.26C191.006 76.2581 177.825 80.2547 166.613 87.7446C155.401 95.2344 146.662 105.881 141.501 118.338C136.34 130.795 134.989 144.502 137.619 157.727C140.249 170.951 146.742 183.099 156.277 192.633C165.811 202.168 177.959 208.661 191.183 211.291C204.408 213.921 218.115 212.57 230.572 207.409C243.029 202.248 253.676 193.509 261.165 182.297C268.655 171.085 272.652 157.904 272.65 144.42C272.629 126.349 265.441 109.025 252.663 96.247C239.885 83.4691 222.561 76.2812 204.49 76.26Z" fill="#093F68"/>
<path d="M204.49 201.73C236.141 201.73 261.8 176.071 261.8 144.42C261.8 112.769 236.141 87.11 204.49 87.11C172.839 87.11 147.18 112.769 147.18 144.42C147.18 176.071 172.839 201.73 204.49 201.73Z" fill="white"/>
<path d="M204.49 202.73C192.957 202.73 181.684 199.31 172.095 192.903C162.506 186.496 155.032 177.389 150.619 166.734C146.205 156.08 145.05 144.355 147.3 133.044C149.55 121.733 155.104 111.343 163.259 103.189C171.413 95.0338 181.803 89.4803 193.114 87.2304C204.425 84.9805 216.149 86.1353 226.804 90.5486C237.459 94.9619 246.566 102.436 252.973 112.025C259.38 121.614 262.8 132.887 262.8 144.42C262.784 159.88 256.636 174.702 245.704 185.634C234.772 196.566 219.95 202.714 204.49 202.73ZM204.49 88.12C193.352 88.12 182.465 91.4228 173.205 97.6107C163.944 103.799 156.727 112.594 152.465 122.883C148.204 133.173 147.089 144.496 149.263 155.419C151.436 166.343 156.8 176.376 164.676 184.251C172.552 192.125 182.587 197.488 193.511 199.659C204.434 201.831 215.757 200.714 226.046 196.451C236.335 192.187 245.129 184.968 251.315 175.707C257.501 166.445 260.802 155.558 260.8 144.42C260.781 129.492 254.843 115.181 244.286 104.627C233.73 94.0723 219.418 88.1359 204.49 88.12Z" fill="#093F68"/>
<path d="M204.49 186.97C227.99 186.97 247.04 167.92 247.04 144.42C247.04 120.92 227.99 101.87 204.49 101.87C180.99 101.87 161.94 120.92 161.94 144.42C161.94 167.92 180.99 186.97 204.49 186.97Z" fill="#10A37F"/>
<path d="M204.49 188C195.873 188.01 187.447 185.464 180.278 180.685C173.108 175.905 167.517 169.106 164.212 161.149C160.907 153.191 160.036 144.432 161.709 135.98C163.383 127.527 167.526 119.761 173.614 113.663C179.702 107.565 187.461 103.41 195.911 101.723C204.361 100.036 213.121 100.893 221.084 104.185C229.047 107.478 235.855 113.058 240.646 120.22C245.437 127.381 247.996 135.803 248 144.42C247.992 155.964 243.408 167.033 235.252 175.202C227.096 183.371 216.034 187.974 204.49 188ZM204.49 102.89C196.267 102.88 188.226 105.31 181.384 109.872C174.542 114.434 169.207 120.923 166.055 128.518C162.903 136.113 162.074 144.472 163.675 152.538C165.275 160.604 169.232 168.014 175.046 173.83C180.859 179.646 188.267 183.607 196.332 185.211C204.397 186.816 212.757 185.991 220.354 182.843C227.95 179.694 234.442 174.362 239.007 167.523C243.572 160.683 246.006 152.643 246 144.42C245.987 133.411 241.61 122.857 233.83 115.068C226.049 107.28 215.499 102.894 204.49 102.87V102.89Z" fill="#093F68"/>
<path d="M204.49 173.52C220.562 173.52 233.59 160.491 233.59 144.42C233.59 128.348 220.562 115.32 204.49 115.32C188.419 115.32 175.39 128.348 175.39 144.42C175.39 160.491 188.419 173.52 204.49 173.52Z" fill="white"/>
<path d="M204.49 174.52C198.536 174.522 192.716 172.758 187.765 169.452C182.813 166.146 178.954 161.446 176.674 155.946C174.394 150.446 173.797 144.393 174.957 138.554C176.117 132.714 178.983 127.35 183.193 123.14C187.402 118.929 192.765 116.061 198.604 114.899C204.443 113.737 210.496 114.332 215.996 116.61C221.497 118.888 226.199 122.746 229.507 127.696C232.814 132.646 234.58 138.466 234.58 144.42C234.572 152.399 231.4 160.049 225.759 165.692C220.118 171.334 212.469 174.509 204.49 174.52ZM204.49 116.33C198.932 116.328 193.497 117.975 188.875 121.062C184.252 124.148 180.649 128.537 178.521 133.672C176.393 138.807 175.836 144.458 176.919 149.91C178.003 155.361 180.68 160.369 184.61 164.3C188.541 168.23 193.549 170.907 199 171.991C204.452 173.074 210.103 172.517 215.238 170.389C220.373 168.261 224.762 164.658 227.848 160.035C230.935 155.413 232.582 149.978 232.58 144.42C232.569 136.973 229.607 129.835 224.341 124.569C219.075 119.303 211.937 116.341 204.49 116.33Z" fill="#093F68"/>
<path d="M204.49 160.54C213.393 160.54 220.61 153.323 220.61 144.42C220.61 135.517 213.393 128.3 204.49 128.3C195.587 128.3 188.37 135.517 188.37 144.42C188.37 153.323 195.587 160.54 204.49 160.54Z" fill="#10A37F"/>
<path d="M204.49 161.54C201.104 161.54 197.794 160.536 194.979 158.655C192.163 156.774 189.969 154.1 188.673 150.972C187.378 147.843 187.039 144.401 187.699 141.08C188.36 137.759 189.99 134.709 192.384 132.314C194.779 129.92 197.829 128.29 201.15 127.629C204.471 126.968 207.913 127.307 211.042 128.603C214.17 129.899 216.844 132.093 218.725 134.909C220.606 137.724 221.61 141.034 221.61 144.42C221.605 148.959 219.799 153.31 216.59 156.52C213.38 159.729 209.029 161.535 204.49 161.54ZM204.49 129.3C201.5 129.3 198.576 130.187 196.09 131.848C193.603 133.51 191.665 135.871 190.521 138.634C189.377 141.397 189.077 144.437 189.661 147.37C190.244 150.303 191.684 152.997 193.799 155.112C195.913 157.226 198.607 158.666 201.54 159.25C204.473 159.833 207.513 159.534 210.276 158.389C213.039 157.245 215.401 155.307 217.062 152.82C218.723 150.334 219.61 147.411 219.61 144.42C219.605 140.412 218.01 136.569 215.176 133.734C212.341 130.9 208.499 129.305 204.49 129.3Z" fill="#093F68"/>
<path d="M142.1 95.12L126.35 102.2L149.24 119.84L165.72 113.4L142.1 95.12Z" fill="#F56132"/>
<path d="M149.24 120.84C149.018 120.839 148.801 120.77 148.62 120.64L125.74 103C125.604 102.894 125.498 102.755 125.431 102.597C125.365 102.438 125.34 102.265 125.36 102.094C125.381 101.923 125.445 101.76 125.546 101.621C125.648 101.482 125.783 101.371 125.94 101.3L141.69 94.22C141.852 94.1498 142.03 94.1239 142.206 94.1449C142.382 94.166 142.549 94.2333 142.69 94.34L166.31 112.62C166.452 112.728 166.562 112.872 166.63 113.037C166.697 113.202 166.719 113.382 166.694 113.559C166.668 113.735 166.596 113.901 166.485 114.041C166.373 114.18 166.227 114.287 166.06 114.35L149.58 120.79C149.47 120.824 149.355 120.841 149.24 120.84ZM128.24 102.42L149.36 118.71L163.67 113.12L142 96.28L128.24 102.42Z" fill="#093F68"/>
<path d="M141.76 94.13L147.27 79.7L167.57 99.1L165.72 113.4L141.76 94.13Z" fill="#F56132"/>
<path d="M165.72 114.4C165.491 114.401 165.269 114.323 165.09 114.18L141.09 94.91C140.924 94.7776 140.804 94.5957 140.749 94.3907C140.693 94.1857 140.704 93.9683 140.78 93.77L146.29 79.35C146.349 79.1951 146.446 79.0573 146.572 78.949C146.697 78.8408 146.848 78.7655 147.01 78.73C147.184 78.6814 147.368 78.6808 147.542 78.7283C147.717 78.7759 147.875 78.8698 148 79L168.31 98.4C168.423 98.5083 168.509 98.6417 168.561 98.7893C168.613 98.9369 168.63 99.0947 168.61 99.25L166.75 113.55C166.727 113.726 166.658 113.894 166.549 114.034C166.44 114.175 166.295 114.284 166.13 114.35C165.998 114.395 165.859 114.412 165.72 114.4ZM143 93.8L165 111.51L166.56 99.51L147.7 81.51L143 93.8Z" fill="#093F68"/>
<path d="M204.75 147C204.226 146.997 203.719 146.817 203.31 146.49L132.1 89.9C131.843 89.7159 131.627 89.4816 131.463 89.2111C131.3 88.9407 131.193 88.6399 131.15 88.327C131.106 88.014 131.127 87.6955 131.21 87.3908C131.294 87.0861 131.438 86.8015 131.635 86.5544C131.832 86.3073 132.077 86.1028 132.355 85.9534C132.634 85.8039 132.94 85.7127 133.254 85.6851C133.569 85.6576 133.886 85.6944 134.186 85.7932C134.486 85.892 134.763 86.0508 135 86.26L206.2 142.87C206.577 143.171 206.851 143.582 206.984 144.046C207.118 144.509 207.104 145.003 206.945 145.459C206.786 145.914 206.489 146.309 206.096 146.589C205.703 146.868 205.232 147.019 204.75 147.02V147Z" fill="#FFBC0E"/>
<path d="M204.75 148C204 147.998 203.274 147.74 202.69 147.27L131.48 90.68C130.797 90.1226 130.362 89.3167 130.272 88.4393C130.182 87.5619 130.444 86.6847 131 86C131.55 85.3127 132.349 84.8704 133.224 84.7693C134.098 84.6682 134.978 84.9164 135.67 85.46L206.88 142.08C207.419 142.511 207.81 143.099 208 143.762C208.191 144.425 208.17 145.131 207.942 145.782C207.713 146.433 207.288 146.997 206.726 147.396C206.163 147.795 205.49 148.01 204.8 148.01L204.75 148ZM133.55 86.7301C133.275 86.7319 133.007 86.819 132.784 86.9793C132.56 87.1396 132.392 87.3652 132.302 87.6251C132.212 87.8851 132.205 88.1665 132.282 88.4306C132.358 88.6947 132.515 88.9286 132.73 89.1L203.93 145.71C204.208 145.92 204.556 146.015 204.902 145.976C205.248 145.937 205.566 145.767 205.79 145.5C205.899 145.364 205.98 145.207 206.029 145.039C206.077 144.871 206.092 144.695 206.073 144.522C206.053 144.348 206 144.18 205.915 144.027C205.83 143.874 205.717 143.739 205.58 143.63L134.38 87C134.138 86.8291 133.846 86.7414 133.55 86.75V86.7301Z" fill="#093F68"/>
</svg>
