<svg width="400" height="300" viewBox="0 0 400 300" fill="none" xmlns="http://www.w3.org/2000/svg">
<path d="M152.12 74.84H227.89C232.945 74.841 237.944 75.8998 242.565 77.9483C247.186 79.9968 251.327 82.9896 254.722 86.7343C258.118 90.4791 260.692 94.8929 262.279 99.6919C263.867 104.491 264.433 109.569 263.94 114.6L256.82 187.34H123.19L116.06 114.6C115.569 109.569 116.136 104.49 117.725 99.6912C119.313 94.8921 121.888 90.4785 125.285 86.7339C128.681 82.9894 132.823 79.9967 137.444 77.9484C142.066 75.9 147.065 74.8412 152.12 74.84Z" fill="white"/>
<path d="M256.82 187.84H123.19C123.066 187.841 122.945 187.795 122.853 187.712C122.76 187.628 122.702 187.514 122.69 187.39L115.56 114.65C115.06 109.549 115.634 104.399 117.244 99.5328C118.854 94.6665 121.465 90.1911 124.908 86.3943C128.352 82.5975 132.552 79.5636 137.238 77.4875C141.925 75.4115 146.994 74.3393 152.12 74.34H227.89C233.016 74.3376 238.085 75.4087 242.772 77.4844C247.459 79.56 251.659 82.5941 255.102 86.3914C258.545 90.1887 261.155 94.665 262.763 99.532C264.371 104.399 264.943 109.549 264.44 114.65L257.32 187.39C257.305 187.513 257.247 187.626 257.155 187.709C257.063 187.792 256.944 187.838 256.82 187.84ZM123.64 186.84H256.37L263.45 114.55C263.935 109.588 263.377 104.58 261.811 99.8463C260.245 95.1131 257.706 90.76 254.357 87.067C251.007 83.3739 246.922 80.4227 242.364 78.403C237.806 76.3834 232.875 75.34 227.89 75.34H152.12C147.134 75.3384 142.203 76.3808 137.644 78.4C133.085 80.4191 128.999 83.3703 125.65 87.0637C122.3 90.7571 119.761 95.1108 118.195 99.8447C116.63 104.579 116.073 109.588 116.56 114.55L123.64 186.84Z" fill="#D1D3D4"/>
<path d="M285.83 129.93C280.01 133.13 247.83 136.15 242.93 138.42C242.057 138.839 241.214 139.32 240.41 139.86C232.59 145.02 227.41 157.5 241.04 158.63C245.21 158.98 281.89 145.42 296.48 139.3C299.7 137.96 310.37 132.44 309.55 130.3C308.73 128.16 305.32 122.6 304 123C302.68 123.4 292.73 128.11 292.73 128.11C292.73 128.11 295.5 119.81 292.73 120.11C289.96 120.41 285.83 129.93 285.83 129.93Z" fill="white"/>
<path d="M241.19 159.15H241C234.83 158.63 232.87 155.89 232.3 153.68C231.06 148.81 235.3 142.61 240.12 139.43C240.947 138.878 241.812 138.387 242.71 137.96C244.97 136.9 252.43 135.77 261.07 134.45C270.94 132.95 282.07 131.25 285.43 129.56C286.11 127.98 289.77 119.82 292.65 119.56C292.895 119.524 293.145 119.553 293.375 119.645C293.604 119.736 293.806 119.886 293.96 120.08C295.02 121.41 294.15 125.08 293.57 127.08C296.18 125.84 302.74 122.75 303.85 122.45C305.85 121.91 309.42 128.45 310.03 130.09C311.23 133.24 296.83 139.71 296.68 139.77C283.39 145.35 246.37 159.15 241.19 159.15ZM292.84 120.56H292.75C290.94 120.74 287.84 126.56 286.31 130.13C286.264 130.237 286.183 130.325 286.08 130.38C282.79 132.19 271.83 133.86 261.22 135.47C253.02 136.72 245.22 137.9 243.15 138.89C242.297 139.296 241.474 139.764 240.69 140.29C235.62 143.64 232.3 149.53 233.3 153.42C233.99 156.13 236.68 157.75 241.09 158.12H241.25C245.92 158.12 281.61 144.98 296.25 138.83C301.31 136.71 309.53 131.77 309.03 130.46C308.03 127.86 304.94 123.46 304.11 123.46C303.05 123.74 295.69 127.22 292.94 128.53C292.848 128.574 292.744 128.59 292.643 128.576C292.541 128.562 292.446 128.518 292.37 128.45C292.295 128.382 292.241 128.294 292.216 128.196C292.191 128.098 292.196 127.995 292.23 127.9C293.04 125.45 293.87 121.6 293.15 120.7C293.114 120.652 293.067 120.614 293.013 120.59C292.959 120.565 292.899 120.555 292.84 120.56Z" fill="#231F20"/>
<path d="M212.83 79.8399C221.105 72.5441 228.161 63.9727 233.73 54.45L242.08 59.6199C242.08 59.6199 234.42 79.9999 212.83 79.8399Z" fill="white"/>
<path d="M213.1 80.35H212.82C212.714 80.3507 212.61 80.3183 212.523 80.2572C212.436 80.1961 212.371 80.1094 212.335 80.0092C212.3 79.909 212.297 79.8002 212.327 79.6982C212.356 79.5961 212.417 79.5059 212.5 79.44C220.719 72.1755 227.733 63.6529 233.28 54.19C233.313 54.1297 233.359 54.0772 233.414 54.0358C233.47 53.9945 233.533 53.9652 233.6 53.95C233.667 53.9322 233.737 53.9283 233.806 53.9386C233.875 53.9489 233.941 53.9732 234 54.01L242.35 59.18C242.451 59.2434 242.528 59.3392 242.568 59.4517C242.608 59.5642 242.609 59.687 242.57 59.8C242.49 60 234.59 80.35 213.1 80.35ZM233.91 55.17C228.567 64.1367 221.933 72.2674 214.22 79.3C232.56 78.67 240.22 62.56 241.44 59.82L233.91 55.17Z" fill="#231F20"/>
<path d="M212.83 79.84C222.208 80.8085 231.613 78.288 239.25 72.76L241 84.33C241 84.33 228.88 90.66 210.86 83.64L212.83 79.84Z" fill="white"/>
<path d="M227.53 87.44C221.745 87.3952 216.02 86.2692 210.65 84.12C210.583 84.0924 210.521 84.0516 210.47 84.0001C210.418 83.9486 210.378 83.8874 210.35 83.82C210.32 83.754 210.305 83.6825 210.305 83.61C210.305 83.5376 210.32 83.466 210.35 83.4L212.35 79.6C212.398 79.5023 212.477 79.4231 212.575 79.3743C212.672 79.3256 212.783 79.31 212.89 79.33C222.119 80.2315 231.361 77.7434 238.89 72.33C238.962 72.2768 239.048 72.2432 239.137 72.2327C239.226 72.2222 239.317 72.235 239.4 72.27C239.481 72.3045 239.551 72.3596 239.604 72.4298C239.656 72.5001 239.689 72.5829 239.7 72.67L241.43 84.24C241.444 84.3467 241.426 84.4551 241.377 84.5513C241.329 84.6475 241.254 84.7272 241.16 84.78C241.14 84.83 236 87.44 227.53 87.44ZM211.53 83.36C227.23 89.28 238.36 84.93 240.38 84.03L238.84 73.65C231.294 78.8071 222.195 81.1922 213.09 80.4L211.53 83.36Z" fill="#231F20"/>
<path d="M249.68 136.29C249.68 136.29 246.68 128.91 232.39 112.29C225.53 104.29 207.12 101.29 202.18 101.03C203.26 101.14 206.35 99.44 185.31 101.03C174.49 101.85 167.57 102.39 161.2 109.17C149.2 121.96 123.2 149.17 123.2 149.17L150.65 157C150.65 157 155.1 153.88 156.73 151.72L152.79 181L226.92 185.32L226.3 151.75L233.9 157.95L249.68 136.29Z" fill="#10A37F"/>
<path d="M200.91 101C200.91 101 201.37 101 202.18 101C201.74 100.94 200.91 101 200.91 101Z" fill="#10A37F"/>
<path d="M181.55 104.16L182.22 179.24H202.99V100.05L181.55 104.16Z" fill="white"/>
<path d="M203 179.7H182.22C182.1 179.7 181.984 179.653 181.898 179.569C181.812 179.485 181.763 179.37 181.76 179.25L181.09 104.16C181.09 104.054 181.127 103.951 181.195 103.869C181.262 103.787 181.356 103.731 181.46 103.71L202.9 99.6C202.966 99.585 203.035 99.585 203.101 99.6001C203.167 99.6152 203.228 99.6451 203.281 99.6874C203.334 99.7296 203.377 99.7833 203.406 99.8444C203.435 99.9054 203.45 99.9723 203.45 100.04V179.24C203.45 179.36 203.403 179.476 203.319 179.562C203.235 179.648 203.12 179.697 203 179.7ZM182.68 178.79H202.54V100.6L182 104.53L182.68 178.79Z" fill="#231F20"/>
<path d="M177.5 152.17C177.414 152.17 177.33 152.146 177.257 152.1C177.184 152.054 177.126 151.988 177.09 151.91L168.09 133.04C168.05 132.97 168.03 132.891 168.03 132.81C168.03 132.729 168.05 132.65 168.09 132.58L173.93 123.99L168.2 119.77C168.106 119.7 168.043 119.597 168.022 119.482C168.002 119.367 168.026 119.248 168.09 119.15L177.09 105.85C177.123 105.8 177.166 105.758 177.216 105.725C177.265 105.692 177.321 105.669 177.38 105.658C177.438 105.647 177.499 105.648 177.557 105.66C177.615 105.672 177.671 105.696 177.72 105.73C177.77 105.764 177.813 105.808 177.846 105.858C177.879 105.909 177.901 105.966 177.913 106.025C177.924 106.085 177.923 106.146 177.911 106.205C177.898 106.264 177.874 106.32 177.84 106.37L169.05 119.3L174.77 123.51C174.866 123.58 174.932 123.685 174.952 123.803C174.973 123.92 174.947 124.041 174.88 124.14L169 132.88L177.93 151.52C177.981 151.63 177.987 151.756 177.946 151.87C177.904 151.985 177.82 152.078 177.71 152.13C177.644 152.16 177.572 152.174 177.5 152.17Z" fill="#231F20"/>
<path d="M206.32 152.17C206.254 152.185 206.186 152.185 206.12 152.17C206.01 152.118 205.925 152.025 205.884 151.91C205.843 151.796 205.849 151.67 205.9 151.56L214.83 132.92L208.9 124.18C208.833 124.081 208.807 123.96 208.828 123.843C208.848 123.725 208.914 123.62 209.01 123.55L214.73 119.34L205.94 106.41C205.906 106.36 205.882 106.304 205.869 106.245C205.857 106.186 205.856 106.125 205.867 106.065C205.878 106.006 205.901 105.949 205.934 105.898C205.967 105.848 206.01 105.804 206.06 105.77C206.109 105.736 206.164 105.712 206.223 105.7C206.281 105.688 206.341 105.687 206.4 105.698C206.459 105.709 206.515 105.732 206.564 105.765C206.614 105.798 206.657 105.84 206.69 105.89L215.74 119.19C215.804 119.288 215.828 119.407 215.808 119.522C215.787 119.637 215.724 119.74 215.63 119.81L209.9 124L215.74 132.59C215.779 132.66 215.8 132.74 215.8 132.82C215.8 132.901 215.779 132.98 215.74 133.05L206.74 151.92C206.702 151.998 206.641 152.063 206.567 152.107C206.492 152.151 206.407 152.173 206.32 152.17Z" fill="#231F20"/>
<path d="M211 95.9101C210.87 95.9101 213.27 83.08 213.48 82C214.89 74.75 215.98 68.1701 215.32 62.3101C213.59 63.1501 213.17 65.7201 211.73 66.9801C211.197 61.5203 210.963 56.0354 211.03 50.55C201.63 53.88 191.73 57.55 185.54 65.38L184.8 53.69C180.46 60.69 176.05 67.8501 173.72 75.8001C171.39 83.7501 173 91.16 174.93 99L211 95.9101Z" fill="white"/>
<path d="M174.93 99.4801C174.814 99.4787 174.702 99.4386 174.611 99.3661C174.521 99.2937 174.457 99.193 174.43 99.0801C172.43 90.9001 170.98 83.4901 173.27 75.6601C175.66 67.4701 180.27 60.0101 184.41 53.4201C184.468 53.3281 184.553 53.2564 184.653 53.2152C184.754 53.1739 184.864 53.1651 184.97 53.1901C185.077 53.2158 185.173 53.2755 185.243 53.3602C185.313 53.4449 185.354 53.5501 185.36 53.6601L186 64.0501C192.53 56.5701 202.67 52.9701 210.88 50.0501C210.958 50.023 211.042 50.015 211.124 50.0267C211.206 50.0385 211.284 50.0696 211.351 50.1175C211.419 50.1654 211.474 50.2288 211.512 50.3023C211.55 50.3758 211.57 50.4573 211.57 50.5401C211.512 55.6001 211.709 60.6599 212.16 65.7001C212.38 65.3501 212.59 64.9701 212.8 64.5801C213.269 63.4449 214.08 62.4838 215.12 61.8301C215.195 61.7931 215.277 61.7738 215.36 61.7738C215.443 61.7738 215.525 61.7931 215.6 61.8301C215.671 61.8729 215.731 61.9312 215.776 62.0004C215.821 62.0696 215.849 62.1481 215.86 62.2301C216.55 68.2301 215.38 75.0701 214.01 82.0801C213.75 83.4401 211.62 94.9101 211.54 95.8401C211.56 95.912 211.56 95.9881 211.54 96.0601C211.51 96.1546 211.451 96.2378 211.373 96.2985C211.294 96.3592 211.199 96.3946 211.1 96.4001L175 99.4801H174.93ZM184.43 55.3301C180.59 61.5201 176.43 68.4601 174.26 75.9501C172.09 83.4401 173.43 90.5401 175.33 98.4101L210.62 95.4101C210.74 94.1401 211.27 90.8101 213.01 81.8801C214.29 75.3001 215.4 68.8801 214.93 63.2301C214.446 63.783 214.039 64.3986 213.72 65.0601C213.322 65.9121 212.777 66.6873 212.11 67.3501C212.04 67.4151 211.953 67.4582 211.858 67.4742C211.764 67.4902 211.668 67.4783 211.58 67.4401C211.49 67.4067 211.412 67.3486 211.353 67.2725C211.295 67.1965 211.259 67.1055 211.25 67.0101C210.749 61.7753 210.512 56.5187 210.54 51.2601C202.22 54.2601 192.1 57.9601 185.98 65.6801C185.914 65.7602 185.825 65.8191 185.726 65.8494C185.626 65.8796 185.52 65.8798 185.42 65.8501C185.322 65.816 185.236 65.7545 185.172 65.6729C185.109 65.5914 185.07 65.4932 185.06 65.3901L184.43 55.3301Z" fill="#231F20"/>
<path d="M205.69 95.32C206.69 89.18 216.87 87.67 216.37 94.91C216.291 97.4259 215.328 99.8334 213.65 101.71C212.797 102.625 211.691 103.265 210.473 103.55C209.255 103.835 207.98 103.751 206.81 103.31" fill="white"/>
<path d="M208.94 104.26C208.135 104.269 207.337 104.105 206.6 103.78C206.538 103.752 206.483 103.713 206.436 103.664C206.39 103.615 206.353 103.557 206.329 103.494C206.305 103.431 206.294 103.363 206.295 103.296C206.297 103.228 206.312 103.162 206.34 103.1C206.368 103.038 206.407 102.983 206.456 102.936C206.505 102.89 206.563 102.853 206.626 102.829C206.689 102.805 206.757 102.794 206.824 102.795C206.892 102.797 206.958 102.812 207.02 102.84C208.093 103.243 209.262 103.316 210.378 103.051C211.493 102.785 212.503 102.193 213.28 101.35C214.871 99.5588 215.781 97.2648 215.85 94.87C216.02 92.42 214.85 90.87 212.71 90.62C211.226 90.4776 209.741 90.8874 208.54 91.7712C207.339 92.6549 206.506 93.9505 206.2 95.41C206.189 95.4764 206.165 95.54 206.13 95.5972C206.094 95.6543 206.047 95.7038 205.993 95.7429C205.938 95.7819 205.876 95.8097 205.81 95.8247C205.744 95.8396 205.676 95.8414 205.61 95.83C205.475 95.8078 205.355 95.7335 205.274 95.6231C205.194 95.5127 205.16 95.3751 205.18 95.24C205.52 93.5133 206.493 91.9763 207.909 90.9308C209.324 89.8853 211.08 89.4071 212.83 89.59C214.95 89.84 217.13 91.37 216.83 94.94C216.741 97.5782 215.729 100.102 213.97 102.07C212.645 103.431 210.839 104.217 208.94 104.26Z" fill="#231F20"/>
<path d="M180.28 95.32C179.28 89.18 169.1 87.67 169.6 94.91C169.684 97.425 170.646 99.8312 172.32 101.71C173.173 102.625 174.279 103.265 175.497 103.55C176.715 103.835 177.99 103.751 179.16 103.31" fill="white"/>
<path d="M177 104.26C175.08 104.233 173.25 103.445 171.91 102.07C170.178 100.112 169.181 97.6125 169.09 95C168.84 91.42 171.02 89.89 173.09 89.64C174.84 89.4594 176.594 89.9386 178.009 90.9837C179.424 92.0287 180.398 93.5644 180.74 95.29C180.753 95.3572 180.752 95.4263 180.737 95.4931C180.722 95.5599 180.693 95.6229 180.653 95.6782C180.613 95.7335 180.561 95.78 180.502 95.8147C180.443 95.8494 180.378 95.8716 180.31 95.88C180.244 95.8914 180.176 95.8896 180.11 95.8747C180.044 95.8597 179.982 95.8319 179.927 95.7929C179.873 95.7538 179.826 95.7043 179.79 95.6472C179.755 95.59 179.731 95.5264 179.72 95.46C179.412 94.0015 178.579 92.7073 177.378 91.8239C176.178 90.9406 174.694 90.5298 173.21 90.67C171.04 90.92 169.9 92.47 170.07 94.92C170.139 97.3148 171.049 99.6088 172.64 101.4C173.417 102.242 174.428 102.833 175.543 103.099C176.658 103.364 177.827 103.291 178.9 102.89C179.025 102.834 179.166 102.83 179.294 102.879C179.421 102.928 179.524 103.025 179.58 103.15C179.636 103.275 179.64 103.416 179.591 103.544C179.542 103.671 179.445 103.774 179.32 103.83C178.586 104.136 177.795 104.282 177 104.26Z" fill="#231F20"/>
<path d="M181.75 123.62L191.98 132.03L202.96 125.92L203.69 100.47L181.75 99.78V123.62Z" fill="white"/>
<path d="M192 132.55C191.882 132.55 191.769 132.507 191.68 132.43L181.42 124C181.361 123.952 181.314 123.891 181.283 123.821C181.251 123.752 181.237 123.676 181.24 123.6V99.78C181.24 99.6419 181.294 99.5091 181.39 99.41C181.494 99.3159 181.63 99.2656 181.77 99.27L203.71 99.95C203.846 99.9553 203.975 100.014 204.068 100.113C204.162 100.212 204.213 100.344 204.21 100.48L203.47 125.93C203.47 126.02 203.446 126.108 203.4 126.186C203.355 126.263 203.289 126.327 203.21 126.37L192.21 132.48C192.147 132.521 192.075 132.545 192 132.55ZM182.29 123.38L192.06 131.38L202.47 125.58L203.18 100.93L182.29 100.29V123.38Z" fill="#231F20"/>
<path d="M182.44 110C182.64 111.16 188.88 118.9 203.28 119.78V110C199.84 110.49 195.28 112.17 191.57 111.83C188.453 111.716 185.373 111.119 182.44 110.06C182 109.83 182.9 110.3 182.44 110Z" fill="#231F20"/>
<path d="M203.28 120.32C189.65 119.49 182.93 112.42 182.07 110.4C181.961 110.343 181.878 110.244 181.841 110.126C181.803 110.008 181.814 109.88 181.87 109.77C181.97 109.57 182.19 109.37 182.67 109.59C185.565 110.62 188.6 111.204 191.67 111.32C194.293 111.384 196.909 111.047 199.43 110.32C200.79 110 202.08 109.7 203.26 109.53C203.331 109.519 203.404 109.525 203.474 109.545C203.543 109.566 203.606 109.602 203.66 109.65C203.712 109.697 203.754 109.754 203.783 109.818C203.812 109.881 203.828 109.95 203.83 110.02V119.86C203.83 119.928 203.816 119.995 203.789 120.057C203.761 120.119 203.721 120.175 203.67 120.22C203.616 120.264 203.553 120.296 203.486 120.313C203.419 120.33 203.348 120.333 203.28 120.32ZM183.61 111C185.5 113.3 191.4 118.44 202.78 119.28V110.56C201.78 110.73 200.73 110.98 199.6 111.24C196.98 112.003 194.258 112.36 191.53 112.3C188.851 112.157 186.195 111.721 183.61 111Z" fill="#231F20"/>
<path d="M191.7 114.09H193.34C195.19 114.09 197.022 113.725 198.73 113.017C200.439 112.309 201.992 111.271 203.3 109.963C204.607 108.654 205.644 107.101 206.351 105.391C207.058 103.682 207.421 101.85 207.42 100V83.44C207.42 79.98 202.58 77.86 199.76 77.44C196.699 77.1121 193.606 77.2605 190.59 77.88C183.15 79.03 177.54 81.75 177.59 90.12V100.06C177.603 103.791 179.097 107.364 181.742 109.994C184.388 112.625 187.969 114.098 191.7 114.09Z" fill="white"/>
<path d="M193.34 114.61H191.7C187.828 114.605 184.116 113.063 181.379 110.324C178.641 107.585 177.103 103.872 177.1 100C177.1 98.9 177.1 97.79 177.1 96.69C177.1 94.4766 177.1 92.2666 177.1 90.06C177.02 80.61 184.22 78.28 190.51 77.31C193.581 76.6727 196.733 76.5243 199.85 76.87C203.2 77.43 207.93 79.87 207.93 83.43V100C207.93 103.871 206.393 107.584 203.658 110.324C200.922 113.063 197.211 114.605 193.34 114.61ZM197 77.7C194.883 77.7526 192.774 77.9666 190.69 78.34C181.84 79.71 178.09 83.21 178.15 90.06C178.15 92.28 178.15 94.4933 178.15 96.7V100.01C178.155 103.607 179.587 107.056 182.13 109.6C184.674 112.143 188.123 113.575 191.72 113.58H193.36C196.955 113.569 200.399 112.134 202.937 109.588C205.475 107.043 206.9 103.595 206.9 100V83.44C206.9 80.44 202.59 78.38 199.68 77.9C198.793 77.7648 197.897 77.698 197 77.7Z" fill="#231F20"/>
<path d="M197.326 96.0905C197.794 96.0595 198.116 95.1633 198.045 94.0887C197.974 93.0141 197.537 92.168 197.069 92.199C196.6 92.2299 196.278 93.1261 196.349 94.2008C196.42 95.2754 196.857 96.1214 197.326 96.0905Z" fill="#231F20"/>
<path d="M185.893 95.4921C186.362 95.4593 186.682 94.5596 186.606 93.4826C186.531 92.4057 186.089 91.5592 185.62 91.5921C185.15 91.625 184.831 92.5247 184.906 93.6016C184.982 94.6786 185.423 95.525 185.893 95.4921Z" fill="#231F20"/>
<path d="M189.06 109.2C188.58 109.2 188.3 109.2 188.25 109.2C188.143 109.16 188.052 109.085 187.991 108.988C187.931 108.89 187.904 108.776 187.916 108.662C187.927 108.547 187.976 108.44 188.054 108.357C188.133 108.273 188.237 108.218 188.35 108.2C192.846 108.29 197.21 106.679 200.57 103.69C200.676 103.604 200.811 103.562 200.947 103.574C201.083 103.585 201.209 103.648 201.3 103.75C201.388 103.855 201.432 103.991 201.42 104.127C201.409 104.264 201.344 104.391 201.24 104.48C197.858 107.431 193.547 109.102 189.06 109.2Z" fill="#231F20"/>
<path d="M202.45 106.11C202.378 106.129 202.302 106.129 202.23 106.11C199.67 104.93 199.95 102.04 200.46 100.68C200.482 100.616 200.517 100.557 200.563 100.507C200.608 100.457 200.664 100.416 200.726 100.388C200.787 100.36 200.854 100.345 200.922 100.344C200.99 100.342 201.057 100.355 201.12 100.38C201.248 100.427 201.352 100.523 201.41 100.647C201.468 100.77 201.475 100.911 201.43 101.04C201.38 101.16 200.33 104.1 202.67 105.18C202.792 105.239 202.886 105.342 202.933 105.469C202.98 105.596 202.975 105.736 202.92 105.86C202.871 105.94 202.802 106.006 202.719 106.05C202.637 106.094 202.544 106.115 202.45 106.11Z" fill="#231F20"/>
<path d="M190.37 105.39C190.202 105.39 190.036 105.351 189.885 105.276C189.734 105.202 189.602 105.093 189.5 104.96C188.18 103.33 189.57 96.1701 189.87 94.7501C189.916 94.6382 190.001 94.5462 190.108 94.4897C190.215 94.4333 190.338 94.416 190.457 94.4409C190.575 94.4658 190.682 94.5313 190.757 94.6261C190.832 94.7208 190.872 94.839 190.87 94.9601C190.18 98.2901 189.55 103.39 190.29 104.3C192.14 104.3 193.54 102.11 193.55 102.09C193.586 102.032 193.632 101.983 193.688 101.943C193.743 101.904 193.805 101.876 193.871 101.861C193.937 101.846 194.006 101.845 194.073 101.856C194.139 101.868 194.203 101.893 194.26 101.93C194.376 102.002 194.459 102.117 194.491 102.25C194.522 102.383 194.501 102.523 194.43 102.64C194.37 102.75 192.71 105.39 190.37 105.39Z" fill="#231F20"/>
<path d="M194 93.9C193.887 93.8982 193.778 93.8604 193.688 93.792C193.598 93.7236 193.532 93.6283 193.5 93.52C193.466 93.3887 193.485 93.2495 193.552 93.1318C193.619 93.0141 193.73 92.9274 193.86 92.89C194.62 92.67 197.23 90.53 198.63 89.38C199.3 88.83 199.83 88.38 200.09 88.21C200.203 88.1304 200.342 88.0989 200.478 88.1223C200.614 88.1458 200.735 88.2222 200.815 88.335C200.895 88.4477 200.926 88.5874 200.903 88.7234C200.879 88.8593 200.803 88.9804 200.69 89.06C200.46 89.22 199.91 89.66 199.28 90.18C197 92.05 195.04 93.62 194.14 93.88L194 93.9Z" fill="#231F20"/>
<path d="M187.7 93.9C187.601 93.8995 187.504 93.8718 187.42 93.82C185.17 92.35 182.63 90.82 182.18 90.58C182.065 90.5568 181.961 90.4943 181.886 90.4032C181.811 90.312 181.771 90.1979 181.771 90.08C181.771 89.9622 181.811 89.848 181.886 89.7569C181.961 89.6657 182.065 89.6033 182.18 89.58C182.43 89.52 182.65 89.48 188.01 92.96C188.123 93.0355 188.201 93.1519 188.229 93.2845C188.257 93.4172 188.232 93.5555 188.16 93.67C188.111 93.7457 188.042 93.8068 187.961 93.8473C187.88 93.8877 187.79 93.9059 187.7 93.9Z" fill="#231F20"/>
<path d="M335.54 225.01H52.77L84.22 166.16H304.09L335.54 225.01Z" fill="white"/>
<path d="M335.54 225.51H52.77C52.6852 225.51 52.6019 225.488 52.5283 225.445C52.4547 225.403 52.3932 225.343 52.3499 225.27C52.3059 225.196 52.2827 225.111 52.2827 225.025C52.2827 224.939 52.3059 224.854 52.3499 224.78L83.8 165.93C83.8418 165.849 83.9049 165.781 83.9824 165.734C84.0599 165.686 84.149 165.661 84.2399 165.66H304.09C304.181 165.661 304.27 165.686 304.347 165.734C304.425 165.781 304.488 165.849 304.53 165.93L336 224.78C336.039 224.856 336.058 224.941 336.056 225.026C336.053 225.112 336.028 225.195 335.984 225.268C335.94 225.341 335.878 225.402 335.804 225.444C335.729 225.487 335.645 225.509 335.56 225.51H335.54ZM53.61 224.51H334.7L303.79 166.66H84.5199L53.61 224.51Z" fill="#231F20"/>
<path d="M268 174.39L227 164.12C227 164.12 206.45 196.54 196.18 203.12L245.26 217.27C245.26 217.27 265.53 184.89 268 174.39Z" fill="white"/>
<path d="M245.21 217.81H245.07L196 203.64C195.908 203.611 195.827 203.557 195.765 203.484C195.703 203.41 195.663 203.321 195.649 203.226C195.635 203.131 195.649 203.034 195.688 202.946C195.727 202.858 195.79 202.783 195.87 202.73C205.93 196.25 226.33 164.18 226.54 163.85C226.595 163.761 226.677 163.692 226.775 163.654C226.872 163.616 226.979 163.611 227.08 163.64L268.17 173.91C268.233 173.925 268.293 173.953 268.346 173.991C268.398 174.03 268.442 174.079 268.476 174.134C268.51 174.19 268.532 174.252 268.541 174.317C268.55 174.381 268.546 174.447 268.53 174.51C266.03 184.97 246.47 216.25 245.64 217.57C245.596 217.644 245.533 217.706 245.457 217.748C245.382 217.79 245.296 217.812 245.21 217.81ZM197.28 203L245 216.72C247.08 213.38 264.66 184.95 267.44 174.72L227.19 164.65C225 168.1 207.31 195.57 197.28 203Z" fill="#231F20"/>
<path d="M249.68 208.61H249.51C236.57 204 216.87 197 215.64 196.86C215.507 196.841 215.388 196.771 215.307 196.664C215.226 196.557 215.191 196.423 215.21 196.29C215.229 196.157 215.299 196.038 215.406 195.957C215.513 195.876 215.647 195.841 215.78 195.86C217.5 196.09 246.54 206.45 249.85 207.63C249.983 207.653 250.101 207.727 250.179 207.837C250.256 207.946 250.287 208.082 250.265 208.215C250.242 208.348 250.168 208.466 250.058 208.544C249.949 208.621 249.813 208.653 249.68 208.63V208.61Z" fill="#D1D3D4"/>
<path d="M253.68 202C253.624 202.01 253.566 202.01 253.51 202C240.57 197.38 220.87 190.44 219.64 190.28C219.51 190.26 219.393 190.191 219.313 190.086C219.232 189.982 219.196 189.851 219.21 189.72C219.23 189.588 219.301 189.469 219.407 189.389C219.514 189.308 219.648 189.273 219.78 189.29C221.5 189.52 250.54 199.88 253.85 201.06C253.983 201.083 254.101 201.157 254.179 201.267C254.257 201.376 254.288 201.512 254.265 201.645C254.243 201.778 254.168 201.896 254.059 201.974C253.949 202.052 253.813 202.083 253.68 202.06V202Z" fill="#D1D3D4"/>
<path d="M259.05 193.71C258.994 193.72 258.936 193.72 258.88 193.71C245.94 189.06 226.24 182.12 225 182C224.869 181.983 224.75 181.914 224.669 181.809C224.589 181.704 224.553 181.571 224.57 181.44C224.59 181.31 224.659 181.193 224.764 181.112C224.868 181.032 224.999 180.996 225.13 181.01C226.86 181.24 255.9 191.6 259.21 192.78C259.343 192.803 259.461 192.877 259.539 192.987C259.617 193.096 259.648 193.232 259.625 193.365C259.603 193.498 259.528 193.616 259.419 193.694C259.309 193.772 259.173 193.803 259.04 193.78L259.05 193.71Z" fill="#D1D3D4"/>
<path d="M262.68 184.84H262.51C249.57 180.22 229.87 173.29 228.65 173.12C228.585 173.113 228.521 173.092 228.464 173.06C228.406 173.027 228.356 172.984 228.316 172.931C228.276 172.879 228.247 172.819 228.23 172.756C228.214 172.692 228.21 172.625 228.22 172.56C228.238 172.429 228.306 172.31 228.411 172.229C228.516 172.149 228.649 172.113 228.78 172.13C230.5 172.36 259.54 182.72 262.85 183.9C262.913 183.921 262.97 183.955 263.019 183.999C263.069 184.043 263.108 184.096 263.136 184.156C263.164 184.216 263.18 184.281 263.182 184.347C263.185 184.413 263.174 184.478 263.15 184.54C263.113 184.633 263.047 184.711 262.963 184.765C262.879 184.819 262.78 184.845 262.68 184.84Z" fill="#D1D3D4"/>
<path d="M237.62 185.32C237.62 185.32 243.1 214.08 247.21 220.59C247.21 220.59 287.1 218.7 297.37 211.17C297.37 211.17 280.76 188.74 278.02 178.47L237.62 185.32Z" fill="white"/>
<path d="M247.21 221.09C247.124 221.089 247.04 221.066 246.965 221.024C246.89 220.982 246.826 220.922 246.78 220.85C242.67 214.34 237.35 186.59 237.13 185.41C237.116 185.345 237.115 185.277 237.129 185.211C237.143 185.146 237.17 185.084 237.21 185.03C237.248 184.976 237.297 184.93 237.354 184.895C237.411 184.861 237.474 184.839 237.54 184.83L277.94 177.98C278.063 177.958 278.189 177.983 278.295 178.049C278.4 178.116 278.477 178.22 278.51 178.34C281.19 188.4 297.61 210.65 297.77 210.87C297.809 210.922 297.837 210.982 297.852 211.046C297.868 211.109 297.87 211.175 297.86 211.24C297.842 211.37 297.774 211.489 297.67 211.57C287.39 219.11 248.87 221.01 247.23 221.09H247.21ZM238.21 185.73C238.95 189.53 243.78 213.73 247.48 220.07C251.1 219.88 286.48 217.84 296.66 211.07C294.36 207.93 280.53 188.81 277.66 179.07L238.21 185.73Z" fill="#231F20"/>
<path d="M164.47 172.06L151.57 208.34L215.71 210.76L203.69 172.06H164.47Z" fill="white"/>
<path d="M215.71 211.26L151.57 208.84C151.492 208.835 151.417 208.813 151.349 208.775C151.282 208.737 151.224 208.684 151.18 208.62C151.134 208.556 151.104 208.481 151.093 208.402C151.083 208.324 151.092 208.244 151.12 208.17L164 171.89C164.035 171.793 164.099 171.71 164.183 171.651C164.267 171.592 164.367 171.56 164.47 171.56H203.69C203.797 171.559 203.901 171.593 203.988 171.656C204.074 171.719 204.138 171.808 204.17 171.91L216.17 210.61C216.195 210.686 216.201 210.767 216.187 210.845C216.173 210.924 216.14 210.997 216.09 211.06C216.046 211.12 215.989 211.169 215.923 211.204C215.857 211.238 215.784 211.258 215.71 211.26ZM152.27 207.87L215 210.23L203.3 172.56H164.8L152.27 207.87Z" fill="#231F20"/>
<path d="M52.77 225.01H335.53V238.9H52.77V225.01Z" fill="white"/>
<path d="M335.54 239.4H52.77C52.6374 239.4 52.5102 239.347 52.4165 239.254C52.3227 239.16 52.27 239.033 52.27 238.9V225C52.2726 224.868 52.3261 224.742 52.4193 224.649C52.5125 224.556 52.6382 224.503 52.77 224.5H335.54C335.672 224.503 335.798 224.556 335.891 224.649C335.984 224.742 336.037 224.868 336.04 225V238.9C336.04 239.033 335.987 239.16 335.894 239.254C335.8 239.347 335.673 239.4 335.54 239.4ZM53.27 238.4H335V225.51H53.27V238.4Z" fill="#231F20"/>
<path d="M180.94 160.19L191.05 178.68L191.16 179.57L191.7 183.94L188.31 181.13L187.62 180.56L177.51 162.06L180.94 160.19Z" fill="#231F20"/>
<path d="M191.7 184.44C191.582 184.442 191.468 184.399 191.38 184.32L187.3 180.94C187.252 180.901 187.212 180.853 187.18 180.8L177.07 162.3C177.039 162.243 177.019 162.18 177.012 162.116C177.005 162.051 177.011 161.985 177.03 161.923C177.048 161.861 177.079 161.803 177.12 161.752C177.162 161.702 177.213 161.66 177.27 161.63L180.7 159.75C180.822 159.7 180.958 159.7 181.08 159.75C181.142 159.769 181.199 159.8 181.249 159.841C181.299 159.882 181.34 159.933 181.37 159.99L191.49 178.48C191.503 178.539 191.503 178.601 191.49 178.66L192.14 183.92C192.155 184.018 192.139 184.117 192.094 184.205C192.049 184.293 191.978 184.365 191.89 184.41C191.83 184.434 191.765 184.444 191.7 184.44ZM188 180.23L191 182.75L190.52 178.83L180.69 160.83L178.13 162.23L188 180.23Z" fill="#231F20"/>
<path d="M175.466 157.253L177.984 155.876C178.217 155.749 178.49 155.719 178.745 155.794C178.999 155.868 179.214 156.041 179.341 156.274L184.139 165.048L179.927 167.351L175.13 158.577C175.002 158.344 174.973 158.07 175.047 157.816C175.122 157.561 175.295 157.347 175.527 157.219L175.466 157.253Z" fill="#231F20"/>
<path d="M179.89 167.85H179.75C179.686 167.833 179.626 167.803 179.575 167.761C179.523 167.72 179.481 167.669 179.45 167.61L174.64 158.82C174.457 158.48 174.413 158.082 174.52 157.71C174.573 157.523 174.664 157.349 174.786 157.198C174.908 157.047 175.059 156.922 175.23 156.83L177.74 155.45C178.084 155.267 178.486 155.227 178.86 155.337C179.234 155.447 179.55 155.7 179.74 156.04L184.54 164.83C184.572 164.886 184.592 164.949 184.6 165.013C184.607 165.077 184.602 165.142 184.585 165.205C184.567 165.267 184.537 165.325 184.497 165.376C184.457 165.427 184.407 165.469 184.35 165.5L180.12 167.81C180.048 167.843 179.969 167.857 179.89 167.85ZM178.45 156.25C178.369 156.25 178.29 156.27 178.22 156.31L175.71 157.68C175.652 157.708 175.601 157.748 175.561 157.798C175.521 157.849 175.494 157.907 175.48 157.97C175.455 158.027 175.442 158.088 175.442 158.15C175.442 158.212 175.455 158.273 175.48 158.33L180.04 166.68L183.39 164.85L178.83 156.5C178.792 156.43 178.738 156.371 178.671 156.327C178.605 156.284 178.529 156.257 178.45 156.25Z" fill="#231F20"/>
<path d="M177.6 167.82C177.508 167.822 177.418 167.799 177.338 167.753C177.259 167.707 177.194 167.64 177.15 167.56C177.04 167.37 174.62 162.99 174.33 162.34C174.04 161.69 174.39 159.34 174.57 158.47C174.596 158.335 174.676 158.216 174.79 158.139C174.904 158.062 175.045 158.034 175.18 158.06C175.246 158.072 175.31 158.097 175.367 158.134C175.423 158.171 175.472 158.218 175.51 158.274C175.549 158.33 175.575 158.393 175.589 158.459C175.603 158.525 175.603 158.594 175.59 158.66C175.33 159.726 175.223 160.824 175.27 161.92C175.5 162.43 177.35 165.8 178.05 167.06C178.083 167.119 178.105 167.184 178.113 167.251C178.121 167.319 178.115 167.387 178.097 167.452C178.078 167.517 178.047 167.578 178.004 167.631C177.962 167.684 177.909 167.728 177.85 167.76C177.772 167.799 177.687 167.819 177.6 167.82Z" fill="#231F20"/>
<path d="M142 153.27C133.69 149.38 120.78 144.76 117.42 157C116.558 160.021 116.884 163.257 118.33 166.046C119.776 168.834 122.234 170.965 125.2 172C140.06 177.53 181.2 183.22 181.2 183.22C181.2 183.22 185.2 182.53 186.63 179.94C188.06 177.35 191.63 180.11 193.63 178.38C195.63 176.65 194.22 173.33 192.32 170.69C190.42 168.05 184.23 167.76 182.66 168.06C181.09 168.36 177.13 170.69 177.12 170.7C173.39 172.88 164.43 165.19 161.37 163.43C155.523 160.097 149.563 156.947 143.49 153.98L142 153.27Z" fill="white"/>
<path d="M181.27 183.7H181.21C180.8 183.64 139.82 177.94 125.08 172.46C121.997 171.388 119.442 169.176 117.939 166.278C116.437 163.381 116.101 160.018 117 156.88C118 153.3 119.86 150.88 122.56 149.61C128.3 146.96 136.56 150.19 142.22 152.85C142.75 153.09 143.27 153.34 143.76 153.58C149.76 156.51 155.83 159.7 161.67 163.05C162.37 163.45 163.36 164.15 164.51 164.96C168.18 167.54 174.31 171.86 176.96 170.31C176.96 170.31 180.96 167.95 182.64 167.62C184.1 167.34 190.64 167.54 192.76 170.44C195.4 174.09 195.85 177.12 194 178.74C193 179.66 191.52 179.49 190.26 179.34C188.67 179.15 187.67 179.09 187.09 180.16C185.62 182.92 181.51 183.65 181.34 183.68L181.27 183.7ZM127.54 149.53C125.962 149.497 124.396 149.807 122.95 150.44C120.5 151.57 118.8 153.82 117.95 157.12C117.114 160.033 117.426 163.156 118.821 165.847C120.216 168.538 122.588 170.593 125.45 171.59C139.79 176.93 179.33 182.5 181.31 182.78C181.82 182.67 185.18 181.93 186.31 179.78C187.2 178.1 188.89 178.3 190.39 178.48C191.56 178.62 192.67 178.75 193.39 178.1C195.51 176.24 192.87 172.21 192.01 171.02C190.31 168.66 184.38 168.27 182.81 168.57C180.923 169.236 179.113 170.1 177.41 171.15C174.26 172.99 168.31 168.81 163.97 165.76C162.84 164.96 161.87 164.27 161.2 163.89C155.38 160.55 149.38 157.37 143.35 154.45L141.82 153.72C137.74 151.76 132.28 149.53 127.54 149.53Z" fill="#231F20"/>
<path d="M172.07 84.93C172.07 84.93 197.87 95.8 213.99 86.13L215.71 75.23C215.71 75.23 190.71 80.79 174.57 71.46C173.488 73.6573 172.675 75.9775 172.15 78.37C171.791 80.5399 171.764 82.7519 172.07 84.93Z" fill="white"/>
<path d="M197.43 90.56C184.43 90.56 172.07 85.43 171.89 85.35C171.819 85.3213 171.755 85.2751 171.707 85.2157C171.658 85.1563 171.624 85.0856 171.61 85.01C171.297 82.7785 171.328 80.5123 171.7 78.29C172.234 75.8658 173.06 73.5154 174.16 71.29C174.188 71.2332 174.227 71.1826 174.275 71.1414C174.324 71.1001 174.379 71.069 174.44 71.05C174.497 71.0258 174.558 71.0133 174.62 71.0133C174.682 71.0133 174.743 71.0258 174.8 71.05C190.58 80.17 215.36 74.82 215.61 74.77C215.682 74.7502 215.758 74.75 215.83 74.7694C215.902 74.7887 215.968 74.8269 216.02 74.88C216.076 74.9289 216.118 74.9914 216.143 75.0615C216.167 75.1316 216.173 75.2069 216.16 75.28L214.44 86.18C214.429 86.2464 214.404 86.3096 214.366 86.3649C214.328 86.4203 214.278 86.4665 214.22 86.5C209.22 89.52 203.27 90.56 197.43 90.56ZM172.43 84.56C175.06 85.56 198.59 94.56 213.52 85.79L215.11 75.79C211.11 76.57 189.35 80.23 174.72 72.08C173.753 74.1056 173.025 76.2365 172.55 78.43C172.233 80.4762 172.209 82.5571 172.48 84.61L172.43 84.56Z" fill="#231F20"/>
<path d="M188.3 128.91L190.63 132.78C190.63 132.78 189.05 146.39 194.63 154.22C200.21 162.05 231.86 142.79 231.86 142.79L232.86 132.03H221.58C221.58 132.03 206.32 151.71 199.18 147.03C192.9 142.9 193.48 132.03 193.48 132.03L197.58 128.91L192.52 124.4L188.3 128.91Z" fill="#231F20"/>
<path d="M199.36 156.55C197.05 156.55 195.22 155.96 194.2 154.55C188.87 147.04 189.95 134.61 190.12 132.93L187.88 129.21C187.823 129.117 187.799 129.008 187.809 128.9C187.82 128.792 187.866 128.69 187.94 128.61L192.15 124.1C192.243 124.008 192.369 123.957 192.5 123.957C192.631 123.957 192.757 124.008 192.85 124.1L197.91 128.61C197.964 128.659 198.007 128.72 198.037 128.787C198.066 128.854 198.081 128.927 198.08 129C198.076 129.074 198.056 129.146 198.022 129.212C197.987 129.278 197.939 129.335 197.88 129.38L193.97 132.38C193.97 133.94 193.97 143.11 199.46 146.71C206.12 151.09 221.04 132.02 221.18 131.83C221.226 131.767 221.286 131.716 221.356 131.682C221.425 131.647 221.502 131.629 221.58 131.63H232.86C232.93 131.631 232.998 131.647 233.062 131.675C233.125 131.704 233.182 131.745 233.229 131.797C233.276 131.848 233.312 131.909 233.334 131.975C233.357 132.041 233.365 132.111 233.36 132.18L232.36 142.94C232.353 143.017 232.328 143.09 232.286 143.155C232.244 143.219 232.187 143.273 232.12 143.31C231 143.87 210 156.55 199.36 156.55ZM188.92 129L191.06 132.54C191.118 132.632 191.143 132.742 191.13 132.85C191.13 132.99 189.63 146.37 195.01 153.95C199.32 160.02 222.49 147.87 231.35 142.51L232.35 132.51H221.82C220.11 134.68 206.04 152.11 198.91 147.42C192.46 143.18 192.96 132.42 192.99 131.98C192.99 131.909 193.008 131.839 193.041 131.777C193.074 131.714 193.122 131.66 193.18 131.62L196.8 128.86L192.55 125.07L188.92 129Z" fill="#231F20"/>
<path d="M195.94 123C186.94 123 182.21 119.28 181.94 119.08C181.834 118.995 181.766 118.872 181.751 118.737C181.736 118.602 181.775 118.466 181.86 118.36C181.945 118.254 182.068 118.186 182.203 118.171C182.339 118.156 182.474 118.195 182.58 118.28C182.66 118.33 189.75 123.85 202.82 121.28C202.886 121.265 202.955 121.264 203.022 121.276C203.089 121.289 203.152 121.314 203.209 121.352C203.266 121.389 203.315 121.437 203.353 121.493C203.391 121.55 203.417 121.613 203.43 121.68C203.457 121.814 203.43 121.953 203.355 122.067C203.28 122.181 203.163 122.261 203.03 122.29C200.696 122.758 198.321 122.996 195.94 123Z" fill="#231F20"/>
<path d="M156.73 152.23C156.626 152.232 156.523 152.201 156.437 152.142C156.351 152.083 156.286 151.998 156.25 151.9L151.09 138.7C151.065 138.634 151.053 138.564 151.055 138.494C151.057 138.424 151.073 138.355 151.102 138.291C151.131 138.227 151.172 138.169 151.223 138.121C151.274 138.073 151.334 138.035 151.4 138.01C151.466 137.985 151.536 137.973 151.606 137.975C151.676 137.977 151.745 137.993 151.809 138.022C151.873 138.051 151.931 138.092 151.979 138.143C152.027 138.194 152.065 138.254 152.09 138.32L157.25 151.53C157.299 151.659 157.295 151.801 157.238 151.927C157.182 152.053 157.079 152.151 156.95 152.2C156.879 152.224 156.805 152.234 156.73 152.23Z" fill="#231F20"/>
<path d="M292.64 174.33L255.43 178.21C255.43 178.21 260 209.94 262.74 216.56C262.74 216.56 296.52 219.07 313.87 209.03C313.87 209 292.87 180.27 292.64 174.33Z" fill="white"/>
<path d="M271.91 217.33C266.45 217.33 262.81 217.07 262.7 217.06C262.608 217.054 262.519 217.022 262.444 216.967C262.37 216.912 262.313 216.837 262.28 216.75C259.54 210.15 255.12 179.58 254.94 178.28C254.931 178.215 254.935 178.148 254.952 178.085C254.969 178.021 254.999 177.962 255.04 177.91C255.08 177.856 255.131 177.811 255.189 177.778C255.248 177.745 255.313 177.726 255.38 177.72L292.59 173.83C292.727 173.819 292.864 173.862 292.97 173.95C293.071 174.043 293.132 174.173 293.14 174.31C293.32 178.89 307.04 198.83 314.27 208.73C314.314 208.786 314.344 208.851 314.36 208.92C314.375 208.989 314.375 209.061 314.36 209.13C314.345 209.199 314.316 209.263 314.274 209.32C314.233 209.377 314.181 209.425 314.12 209.46C302.45 216.22 283.26 217.33 271.91 217.33ZM263.09 216.08C266.49 216.3 296.88 217.91 313.14 208.87C310.44 205.15 293.37 181.43 292.2 174.87L256 178.66C256.6 182.72 260.58 209.52 263.09 216.08Z" fill="#231F20"/>
<path d="M291.39 78.06L285.61 98.69C285.61 98.69 310.72 98.99 319.46 88.19L322.74 66.84C322.74 66.84 298.64 79.05 291.39 78.06Z" fill="white"/>
<path d="M285.76 99.2H285.6C285.524 99.2017 285.448 99.1844 285.38 99.1494C285.312 99.1145 285.253 99.0631 285.21 99C285.162 98.9407 285.129 98.8707 285.113 98.7959C285.097 98.7211 285.1 98.6437 285.12 98.57L290.91 77.93C290.946 77.8158 291.021 77.7177 291.121 77.6521C291.221 77.5865 291.341 77.5575 291.46 77.57C298.46 78.57 322.27 66.57 322.51 66.41C322.588 66.3612 322.678 66.3353 322.77 66.3353C322.862 66.3353 322.952 66.3612 323.03 66.41C323.105 66.4632 323.164 66.5364 323.199 66.6213C323.234 66.7062 323.245 66.7993 323.23 66.89L320 88.27C319.986 88.3557 319.948 88.4355 319.89 88.5C316.19 93.08 309.3 96.27 299.39 97.98C294.886 98.7481 290.329 99.156 285.76 99.2ZM291.76 78.6L286.27 98.19C290.27 98.19 311.21 97.4 318.98 87.98L322.1 67.72C317.74 69.88 298.77 79.06 291.76 78.6Z" fill="#231F20"/>
<path d="M132.01 210.71L155.83 188.4L91.79 183.24L68.71 203.67L132.01 210.71Z" fill="#231F20"/>
<path d="M132 211.2L68.7001 204.2C68.6048 204.19 68.5146 204.152 68.4402 204.092C68.3657 204.031 68.3101 203.951 68.2801 203.86C68.2512 203.768 68.2501 203.67 68.2768 203.577C68.3034 203.485 68.3568 203.402 68.4301 203.34L91.5101 182.91C91.5601 182.865 91.6186 182.83 91.6821 182.808C91.7456 182.786 91.8129 182.776 91.8801 182.78L155.88 187.94C155.975 187.951 156.065 187.988 156.14 188.046C156.216 188.104 156.275 188.181 156.31 188.27C156.34 188.362 156.343 188.46 156.32 188.553C156.297 188.647 156.249 188.732 156.18 188.8L132.36 211.11C132.254 211.181 132.127 211.213 132 211.2ZM69.8701 203.3L131.87 210.18L154.71 188.8L92.0001 183.75L69.8701 203.3Z" fill="#231F20"/>
<path d="M132.01 210.71L120.08 160.63L57.95 155.77L68.7099 203.67L132.01 210.71Z" fill="white"/>
<path d="M132 211.2L68.7 204.2C68.5972 204.186 68.501 204.142 68.4241 204.072C68.3473 204.002 68.2936 203.911 68.27 203.81L57.51 155.91C57.4954 155.833 57.4976 155.754 57.5166 155.678C57.5356 155.602 57.5709 155.531 57.62 155.47C57.6727 155.412 57.7378 155.366 57.8106 155.337C57.8833 155.307 57.9617 155.295 58.04 155.3L120.17 160.16C120.275 160.17 120.374 160.213 120.453 160.283C120.532 160.354 120.587 160.447 120.61 160.55L132.54 210.62C132.559 210.698 132.559 210.78 132.54 210.858C132.521 210.937 132.483 211.009 132.43 211.07C132.373 211.123 132.305 211.162 132.23 211.185C132.156 211.207 132.077 211.213 132 211.2ZM69.11 203.2L131.35 210.12L119.66 161.12L58.57 156.34L69.11 203.2Z" fill="#231F20"/>
<path d="M96.3699 190.9C94.2818 190.815 92.2823 190.033 90.6899 188.68C89.2871 187.148 88.0502 185.472 86.9999 183.68C86.9456 183.588 86.9222 183.481 86.933 183.375C86.9438 183.269 86.9883 183.169 87.0599 183.09L88.4499 181.56C88.5009 181.506 88.5631 181.463 88.6322 181.436C88.7013 181.408 88.7756 181.396 88.8499 181.4C88.9246 181.406 88.9973 181.427 89.0629 181.463C89.1285 181.5 89.1854 181.55 89.2299 181.61C89.9771 182.552 91.0065 183.231 92.1671 183.546C93.3278 183.86 94.5589 183.795 95.6799 183.36C97.3283 182.675 98.6642 181.403 99.4299 179.79C99.5214 179.419 99.5849 179.041 99.6199 178.66C99.6087 178.212 99.7119 177.768 99.9199 177.37C100.06 177.21 100.37 176.83 102.54 177.27C102.653 177.291 102.756 177.35 102.83 177.437C102.905 177.525 102.947 177.635 102.95 177.75V180.43C103.12 181.15 104.08 185.56 102.95 187.09C102.291 188.1 101.425 188.958 100.41 189.608C99.3946 190.258 98.2527 190.685 97.0599 190.86C96.8499 190.88 96.6099 190.9 96.3699 190.9ZM88.0499 183.48C88.9925 185.074 90.0985 186.565 91.3499 187.93C92.9136 189.278 94.9381 189.97 96.9999 189.86C98.0538 189.696 99.061 189.311 99.9555 188.73C100.85 188.15 101.611 187.386 102.19 186.49C102.88 185.58 102.45 182.4 102.03 180.6C102.024 180.567 102.024 180.533 102.03 180.5V178.18C101.611 178.1 101.186 178.064 100.76 178.07C100.76 178.21 100.76 178.54 100.68 178.78C100.654 179.275 100.556 179.763 100.39 180.23C99.4992 182.097 97.9287 183.553 95.9999 184.3C94.7659 184.777 93.418 184.876 92.1273 184.586C90.8366 184.296 89.6611 183.629 88.7499 182.67L88.0499 183.48Z" fill="#D1D3D4"/>
<path d="M204.42 202.74L158.76 201.59C158.694 201.587 158.63 201.572 158.57 201.544C158.51 201.517 158.457 201.478 158.412 201.429C158.368 201.381 158.333 201.325 158.31 201.263C158.288 201.201 158.277 201.136 158.28 201.07C158.281 201.006 158.295 200.942 158.321 200.883C158.347 200.824 158.384 200.771 158.431 200.726C158.477 200.682 158.532 200.647 158.592 200.623C158.652 200.6 158.716 200.589 158.78 200.59L204.43 201.74C204.496 201.74 204.561 201.753 204.622 201.779C204.683 201.805 204.738 201.843 204.784 201.89C204.829 201.938 204.865 201.995 204.889 202.056C204.912 202.118 204.923 202.184 204.92 202.25C204.915 202.38 204.86 202.503 204.767 202.594C204.674 202.685 204.55 202.738 204.42 202.74Z" fill="#D1D3D4"/>
<path d="M173.68 193.71C167.1 193.71 162.06 193.71 161.83 193.65C161.697 193.626 161.58 193.551 161.503 193.44C161.426 193.329 161.396 193.193 161.42 193.06C161.444 192.927 161.519 192.81 161.63 192.733C161.741 192.656 161.877 192.626 162.01 192.65C163.01 192.74 189.23 192.65 203.01 192.65C203.143 192.65 203.27 192.703 203.363 192.796C203.457 192.89 203.51 193.017 203.51 193.15C203.51 193.283 203.457 193.41 203.363 193.504C203.27 193.597 203.143 193.65 203.01 193.65C197.26 193.68 183.68 193.71 173.68 193.71Z" fill="#D1D3D4"/>
<path d="M199.24 185.12H199.19L191.65 184.44C191.584 184.434 191.52 184.414 191.462 184.383C191.404 184.352 191.352 184.31 191.31 184.259C191.268 184.208 191.237 184.149 191.218 184.085C191.199 184.022 191.193 183.956 191.2 183.89C191.205 183.825 191.223 183.761 191.253 183.703C191.283 183.644 191.325 183.593 191.375 183.551C191.425 183.509 191.483 183.477 191.546 183.458C191.609 183.439 191.675 183.433 191.74 183.44L199.28 184.12C199.413 184.12 199.54 184.173 199.634 184.266C199.727 184.36 199.78 184.487 199.78 184.62C199.78 184.753 199.727 184.88 199.634 184.974C199.54 185.067 199.413 185.12 199.28 185.12H199.24Z" fill="#D1D3D4"/>
<path d="M288.83 147C288.83 147 289.66 123.25 302.44 111L336.56 120.9C336.56 120.9 318 141.05 318.24 157.78L288.83 147Z" fill="white"/>
<path d="M318.24 158.3C318.184 158.31 318.126 158.31 318.07 158.3L288.65 147.52C288.548 147.482 288.461 147.414 288.4 147.324C288.339 147.235 288.307 147.128 288.31 147.02C288.31 146.78 289.31 122.92 302.08 110.67C302.147 110.61 302.227 110.568 302.315 110.547C302.402 110.526 302.493 110.527 302.58 110.55L336.71 120.45C336.794 120.476 336.869 120.523 336.93 120.586C336.991 120.649 337.036 120.726 337.06 120.81C337.086 120.895 337.089 120.985 337.068 121.072C337.047 121.158 337.003 121.237 336.94 121.3C336.76 121.5 318.56 141.48 318.76 157.8C318.76 157.884 318.74 157.967 318.702 158.042C318.664 158.116 318.608 158.181 318.54 158.23C318.449 158.282 318.345 158.306 318.24 158.3ZM289.36 146.65L317.73 157C317.9 148.44 322.73 139.13 326.89 132.76C329.533 128.694 332.454 124.815 335.63 121.15L302.58 111.56C291.16 122.78 289.54 143.61 289.36 146.65Z" fill="#231F20"/>
<path d="M325.78 124.23H325.64L302.19 117.43C302.064 117.391 301.958 117.304 301.895 117.189C301.832 117.073 301.816 116.937 301.85 116.81C301.867 116.746 301.897 116.687 301.938 116.635C301.979 116.583 302.03 116.54 302.088 116.508C302.145 116.476 302.209 116.456 302.275 116.45C302.341 116.443 302.407 116.45 302.47 116.47L325.92 123.27C326.053 123.289 326.172 123.359 326.253 123.466C326.334 123.573 326.369 123.707 326.35 123.84C326.331 123.973 326.261 124.092 326.154 124.173C326.047 124.254 325.913 124.289 325.78 124.27V124.23Z" fill="#D1D3D4"/>
<path d="M322.4 131.08H322.26L298.81 124.28C298.684 124.241 298.578 124.154 298.515 124.039C298.452 123.923 298.435 123.787 298.47 123.66C298.487 123.596 298.517 123.537 298.558 123.485C298.599 123.433 298.649 123.39 298.707 123.358C298.765 123.326 298.829 123.306 298.895 123.3C298.96 123.293 299.027 123.3 299.09 123.32L322.54 130.12C322.672 130.139 322.792 130.209 322.873 130.316C322.954 130.423 322.988 130.557 322.97 130.69C322.951 130.823 322.881 130.942 322.774 131.023C322.667 131.104 322.532 131.139 322.4 131.12V131.08Z" fill="#D1D3D4"/>
<path d="M319.51 138.3H319.37L295.92 131.5C295.857 131.482 295.798 131.451 295.747 131.41C295.696 131.369 295.653 131.318 295.621 131.26C295.59 131.203 295.57 131.14 295.563 131.074C295.556 131.009 295.561 130.943 295.58 130.88C295.597 130.816 295.627 130.757 295.668 130.705C295.709 130.653 295.759 130.61 295.817 130.578C295.875 130.546 295.939 130.526 296.005 130.52C296.07 130.513 296.137 130.52 296.2 130.54L319.65 137.34C319.713 137.358 319.772 137.389 319.823 137.43C319.874 137.471 319.917 137.522 319.948 137.58C319.98 137.637 320 137.7 320.007 137.766C320.014 137.831 320.008 137.897 319.99 137.96C319.957 138.061 319.893 138.149 319.807 138.21C319.72 138.271 319.616 138.303 319.51 138.3Z" fill="#D1D3D4"/>
<path d="M309.5 144.76C309.454 144.769 309.406 144.769 309.36 144.76L292.69 139.92C292.626 139.903 292.566 139.873 292.515 139.832C292.463 139.791 292.42 139.74 292.388 139.682C292.356 139.625 292.336 139.561 292.33 139.495C292.323 139.429 292.33 139.363 292.35 139.3C292.387 139.173 292.473 139.065 292.589 139.002C292.706 138.938 292.843 138.923 292.97 138.96L309.64 143.8C309.703 143.818 309.762 143.849 309.813 143.89C309.864 143.931 309.907 143.982 309.938 144.04C309.97 144.097 309.99 144.16 309.997 144.226C310.004 144.291 309.998 144.357 309.98 144.42C309.947 144.521 309.883 144.609 309.797 144.67C309.71 144.731 309.606 144.763 309.5 144.76Z" fill="#D1D3D4"/>
<path d="M313.85 90.13H313.75C313.61 90.13 313.27 90.02 313.29 89.47C313.291 89.3535 313.337 89.2421 313.42 89.16C313.81 87.38 315.3 78.16 316.27 71.9C316.28 71.8343 316.304 71.7714 316.339 71.7147C316.373 71.6581 316.419 71.6089 316.473 71.5699C316.527 71.5309 316.588 71.5029 316.652 71.4874C316.717 71.472 316.784 71.4695 316.85 71.48C316.916 71.4905 316.979 71.5138 317.035 71.5487C317.092 71.5835 317.141 71.6291 317.18 71.683C317.219 71.7369 317.247 71.7979 317.262 71.8626C317.278 71.9272 317.28 71.9943 317.27 72.06C314.58 89.18 314.4 90.13 313.85 90.13Z" fill="#D1D3D4"/>
<path d="M308.85 92.68H308.75C308.6 92.68 308.27 92.58 308.29 92.02C308.291 91.9035 308.337 91.792 308.42 91.71C308.81 89.93 310.3 80.71 311.27 74.45C311.28 74.3852 311.302 74.3231 311.336 74.2672C311.37 74.2114 311.415 74.1629 311.468 74.1247C311.522 74.0865 311.582 74.0593 311.646 74.0447C311.709 74.0302 311.775 74.0286 311.84 74.04C311.905 74.0497 311.967 74.0722 312.024 74.1062C312.08 74.1401 312.129 74.1849 312.168 74.2378C312.207 74.2908 312.235 74.3509 312.251 74.4148C312.267 74.4786 312.27 74.545 312.26 74.61C309.58 91.73 309.4 92.68 308.85 92.68Z" fill="#D1D3D4"/>
<path d="M303.47 93.75H303.37C303.23 93.75 302.89 93.65 302.91 93.1C302.913 92.9811 302.959 92.8673 303.04 92.78C303.43 91 304.92 81.78 305.89 75.52C305.914 75.3897 305.989 75.274 306.097 75.1974C306.205 75.1209 306.339 75.0895 306.47 75.11C306.535 75.1197 306.597 75.1422 306.653 75.1763C306.709 75.2104 306.757 75.2553 306.795 75.3085C306.834 75.3616 306.861 75.4218 306.875 75.4857C306.89 75.5495 306.891 75.6155 306.88 75.68C304.2 92.8 304 93.75 303.47 93.75Z" fill="#D1D3D4"/>
<path d="M298.38 96.3999H298.28C298.13 96.3999 297.8 96.2899 297.82 95.7399C297.821 95.6235 297.867 95.512 297.95 95.4299C298.33 93.6399 299.83 84.4299 300.8 78.1699C300.822 78.0398 300.894 77.9232 301 77.8449C301.107 77.7666 301.239 77.7325 301.37 77.7499C301.5 77.7721 301.617 77.8439 301.695 77.9502C301.773 78.0565 301.807 78.189 301.79 78.3199C299.1 95.4399 298.93 96.3999 298.38 96.3999Z" fill="#D1D3D4"/>
<path d="M293 97.11H292.9C292.75 97.11 292.42 97 292.44 96.45C292.442 96.3309 292.488 96.2168 292.57 96.13C292.95 94.35 294.45 85.13 295.42 78.88C295.43 78.8149 295.452 78.7524 295.486 78.6961C295.52 78.6398 295.565 78.5907 295.618 78.5517C295.671 78.5127 295.731 78.4845 295.795 78.4688C295.858 78.453 295.925 78.45 295.99 78.46C296.12 78.4821 296.237 78.5539 296.315 78.6602C296.393 78.7665 296.427 78.8991 296.41 79.03C293.75 96.16 293.58 97.11 293 97.11Z" fill="#D1D3D4"/>
<path d="M271.53 61.5999C271.53 61.5999 271.25 66.9199 275.92 74.0399C275.92 74.0399 285.86 58.7199 291.92 56.3699C297.98 54.0199 275.93 51.7699 271.53 61.5999Z" fill="white"/>
<path d="M275.92 74.54C275.837 74.5381 275.755 74.5163 275.682 74.4762C275.609 74.4362 275.546 74.3792 275.5 74.31C270.8 67.14 271 61.8 271 61.57C271.007 61.5078 271.024 61.4471 271.05 61.39C274.14 54.48 285.47 53.21 290.85 54.07C292.53 54.33 293.39 54.79 293.46 55.46C293.53 56.13 292.46 56.69 292.09 56.83C286.23 59.1 276.41 74.16 276.31 74.31C276.265 74.3804 276.203 74.4384 276.129 74.4786C276.056 74.5187 275.974 74.5399 275.89 74.54H275.92ZM272 61.71C272 62.4 272.11 67.05 275.9 73.12C277.9 70.12 286.23 58.03 291.73 55.9C291.975 55.8232 292.205 55.7048 292.41 55.55C291.85 55.13 289.04 54.6 285.04 54.97C281.94 55.25 274.45 56.49 272 61.71Z" fill="#231F20"/>
<path d="M293.89 68.76C293.89 68.76 286.2 55.93 271.53 61.6C274.48 55.1196 278.057 48.9435 282.21 43.16C282.21 43.16 290.3 40.34 301.12 49.4C301.12 49.4 297.61 62.93 293.89 68.76Z" fill="white"/>
<path d="M293.89 69.26C293.805 69.2559 293.722 69.231 293.649 69.1874C293.576 69.1438 293.514 69.0829 293.47 69.01C293.16 68.5 285.81 56.62 271.72 62.01C271.629 62.0481 271.528 62.0571 271.431 62.0356C271.334 62.0141 271.247 61.9633 271.18 61.89C271.111 61.8203 271.065 61.7316 271.047 61.6353C271.029 61.5391 271.041 61.4397 271.08 61.35C274.051 54.84 277.648 48.6341 281.82 42.82C281.878 42.7331 281.962 42.6667 282.06 42.63C282.4 42.52 290.54 39.83 301.45 48.97C301.521 49.0319 301.574 49.1123 301.602 49.2023C301.63 49.2924 301.633 49.3885 301.61 49.48C301.47 50.03 298.04 63.15 294.32 68.98C294.279 69.0599 294.217 69.1276 294.142 69.1767C294.067 69.2258 293.98 69.2545 293.89 69.26ZM278.76 59.66C287.23 59.66 292.37 65.78 293.86 67.83C297.04 62.36 300.03 51.54 300.55 49.58C290.97 41.68 283.62 43.28 282.55 43.58C278.719 48.9882 275.373 54.7237 272.55 60.72C274.551 60.0408 276.647 59.683 278.76 59.66Z" fill="#231F20"/>
<path d="M292.55 61.7299C292.497 61.7397 292.443 61.7397 292.39 61.7299C292.327 61.7086 292.27 61.675 292.22 61.6312C292.17 61.5874 292.13 61.5342 292.101 61.4747C292.072 61.4151 292.056 61.3505 292.052 61.2844C292.048 61.2184 292.058 61.1523 292.08 61.0899L296.13 49.3299C296.173 49.2059 296.263 49.1038 296.381 49.0458C296.499 48.9877 296.635 48.9785 296.76 49.0199C296.885 49.0653 296.987 49.1575 297.045 49.277C297.103 49.3965 297.112 49.5339 297.07 49.6599L293 61.3999C292.966 61.4935 292.905 61.5748 292.825 61.6336C292.745 61.6923 292.649 61.7259 292.55 61.7299Z" fill="#D1D3D4"/>
<path d="M287.82 58.76C287.767 58.7696 287.713 58.7696 287.66 58.76C287.536 58.7168 287.434 58.6265 287.376 58.5086C287.318 58.3907 287.309 58.2547 287.35 58.13L291.35 46.51C291.365 46.4409 291.394 46.3757 291.436 46.3187C291.477 46.2617 291.531 46.2142 291.592 46.1793C291.654 46.1444 291.722 46.1229 291.792 46.1162C291.862 46.1096 291.933 46.1179 292 46.1407C292.067 46.1635 292.128 46.2001 292.18 46.2483C292.232 46.2965 292.273 46.3551 292.3 46.4202C292.327 46.4854 292.341 46.5556 292.339 46.6262C292.337 46.6968 292.321 46.7663 292.29 46.83L288.29 58.45C288.253 58.5437 288.188 58.6238 288.104 58.6793C288.02 58.7347 287.921 58.7629 287.82 58.76Z" fill="#D1D3D4"/>
<path d="M282 57.22C281.934 57.2341 281.866 57.2341 281.8 57.22C281.68 57.1671 281.585 57.0701 281.535 56.9491C281.485 56.828 281.483 56.6923 281.53 56.57C286.14 45.52 286.47 45.48 286.81 45.43C286.94 45.4181 287.07 45.4557 287.174 45.5354C287.278 45.6151 287.348 45.731 287.37 45.86C287.383 45.9467 287.373 46.0355 287.339 46.1166C287.306 46.1977 287.251 46.268 287.18 46.32C286.68 47.03 284.03 53.18 282.46 56.95C282.418 57.0347 282.352 57.1052 282.27 57.1531C282.188 57.201 282.095 57.2243 282 57.22Z" fill="#D1D3D4"/>
<path d="M98.7701 118.61C98.7701 118.61 79.4101 116.18 74.4201 108.18C71.2001 103 79.1501 85.45 79.1501 85.45C79.1501 85.45 81.8101 95.57 88.9001 97.09C95.9901 98.61 100.54 99.24 100.54 99.24C100.54 99.24 95.1001 113.55 98.7701 118.61Z" fill="white"/>
<path d="M98.7699 119.11H98.7099C97.9099 119.01 79.0499 116.56 73.9899 108.44C70.6699 103.1 78.3599 85.97 78.6899 85.24C78.7304 85.1439 78.8011 85.0636 78.8914 85.0113C78.9816 84.959 79.0864 84.9375 79.1899 84.95C79.2929 84.9575 79.3909 84.9973 79.4699 85.0637C79.5489 85.1302 79.6049 85.2199 79.6299 85.32C79.6299 85.42 82.2999 95.17 88.9999 96.6C95.9999 98.1 100.57 98.74 100.61 98.75C100.691 98.7554 100.769 98.7811 100.837 98.8249C100.905 98.8686 100.961 98.9288 101 99C101.032 99.0672 101.048 99.1406 101.048 99.215C101.048 99.2894 101.032 99.3629 101 99.43C100.95 99.57 95.6999 113.54 99.1699 118.33C99.2213 118.413 99.2486 118.508 99.2486 118.605C99.2486 118.702 99.2213 118.798 99.1699 118.88C99.1266 118.948 99.0676 119.004 98.998 119.044C98.9284 119.084 98.8501 119.107 98.7699 119.11ZM79.0699 86.88C77.3699 90.88 72.2799 103.79 74.8399 107.88C78.9999 114.56 93.8399 117.31 97.8399 117.94C95.4499 112.78 98.9399 102.24 99.8399 99.62C98.3699 99.39 94.3199 98.74 88.7699 97.55C82.9999 96.33 80.0699 89.73 79.0699 86.88Z" fill="#231F20"/>
<path d="M77.48 107.55C77.3566 107.55 77.2377 107.504 77.1469 107.421C77.0561 107.337 77 107.223 76.99 107.1C76.47 102.31 79.51 94.0199 79.64 93.6699C79.6871 93.5471 79.7806 93.4479 79.9004 93.3936C80.0202 93.3393 80.1566 93.3344 80.28 93.3799C80.4046 93.4251 80.5062 93.5178 80.5624 93.6378C80.6187 93.7579 80.625 93.8953 80.58 94.0199C80.58 94.0999 77.49 102.44 77.98 107.02C77.994 107.151 77.9557 107.283 77.8732 107.386C77.7908 107.489 77.671 107.555 77.54 107.57L77.48 107.55Z" fill="#D1D3D4"/>
<path d="M76.9999 111C76.9999 111 76.6399 106.42 78.7899 103.38L74.4999 98.77C74.4999 98.77 71.2199 106.92 76.9999 111Z" fill="white"/>
<path d="M76.9999 111.54C76.8964 111.54 76.7954 111.508 76.7099 111.45C70.7099 107.15 73.9999 98.71 74.0299 98.63C74.0619 98.5523 74.1123 98.4835 74.1767 98.4295C74.2412 98.3755 74.3177 98.338 74.3999 98.32C74.483 98.305 74.5685 98.3108 74.6488 98.337C74.7291 98.3632 74.8016 98.4089 74.8599 98.47L79.1499 103.08C79.2295 103.163 79.2779 103.271 79.287 103.386C79.2961 103.501 79.2654 103.615 79.1999 103.71C77.1999 106.56 77.4999 110.96 77.4999 111C77.5092 111.094 77.4905 111.189 77.446 111.273C77.4015 111.357 77.3333 111.425 77.2499 111.47C77.1752 111.517 77.0883 111.542 76.9999 111.54ZM74.6999 99.77C74.1399 101.69 73.0899 106.77 76.4799 109.96C76.4658 107.689 77.0412 105.453 78.1499 103.47L74.6999 99.77Z" fill="#231F20"/>
<path d="M81.9999 111.54C81.9334 111.539 81.8678 111.524 81.8069 111.497C81.7461 111.47 81.6913 111.431 81.6456 111.383C81.6 111.335 81.5645 111.278 81.5412 111.215C81.5179 111.153 81.5073 111.086 81.5099 111.02C81.5099 110.67 81.8199 102.39 83.8299 97.43C83.854 97.3689 83.8901 97.3133 83.9362 97.2665C83.9822 97.2197 84.0371 97.1825 84.0977 97.1574C84.1584 97.1322 84.2235 97.1194 84.2891 97.1199C84.3548 97.1203 84.4197 97.134 84.4799 97.16C84.541 97.1843 84.5967 97.2203 84.6439 97.2661C84.691 97.3119 84.7287 97.3666 84.7547 97.4269C84.7807 97.4873 84.7946 97.5522 84.7955 97.618C84.7964 97.6837 84.7843 97.7489 84.7599 97.81C82.8199 102.6 82.5099 110.97 82.5099 111.06C82.5047 111.191 82.4484 111.314 82.353 111.404C82.2576 111.494 82.1309 111.543 81.9999 111.54Z" fill="#D1D3D4"/>
<path d="M87.19 113.08C87.0599 113.078 86.9356 113.025 86.8427 112.934C86.7497 112.843 86.6951 112.72 86.69 112.59C86.58 107.06 88.94 100.11 89.04 99.82C89.0838 99.694 89.1758 99.5906 89.2958 99.5325C89.4158 99.4743 89.554 99.4663 89.68 99.51C89.806 99.5538 89.9094 99.6458 89.9675 99.7658C90.0257 99.8858 90.0338 100.024 89.99 100.15C89.99 100.21 87.58 107.22 87.69 112.57C87.6913 112.636 87.6797 112.701 87.6558 112.762C87.6319 112.823 87.5962 112.879 87.5507 112.927C87.5052 112.974 87.4508 113.012 87.3906 113.038C87.3304 113.064 87.2657 113.079 87.2 113.08H87.19Z" fill="#D1D3D4"/>
<path d="M92.3799 114.36C92.3147 114.361 92.2499 114.35 92.1893 114.326C92.1287 114.302 92.0735 114.266 92.0269 114.22C91.9804 114.174 91.9434 114.12 91.9181 114.06C91.8929 114 91.8799 113.935 91.8799 113.87C91.8632 110.739 92.1276 107.613 92.6699 104.53C92.6987 104.401 92.7763 104.289 92.8863 104.216C92.9963 104.143 93.1302 104.116 93.2599 104.14C93.3249 104.152 93.3868 104.177 93.4419 104.213C93.4971 104.25 93.5443 104.297 93.5807 104.352C93.6171 104.407 93.642 104.469 93.6539 104.534C93.6658 104.599 93.6645 104.666 93.6499 104.73C93.1204 107.744 92.8627 110.8 92.8799 113.86C92.8799 113.993 92.8272 114.12 92.7334 114.214C92.6397 114.307 92.5125 114.36 92.3799 114.36Z" fill="#D1D3D4"/>
</svg>
