<svg width="24" height="24" viewBox="0 0 24 24" fill="none" xmlns="http://www.w3.org/2000/svg" id="icon">
<path fill-rule="evenodd" clip-rule="evenodd" d="M3 5.625C3 5.32663 3.11853 5.04048 3.3295 4.8295C3.54048 4.61853 3.82663 4.5 4.125 4.5H19.875C20.1734 4.5 20.4595 4.61853 20.6705 4.8295C20.8815 5.04048 21 5.32663 21 5.625C21 5.92337 20.8815 6.20952 20.6705 6.4205C20.4595 6.63147 20.1734 6.75 19.875 6.75H4.125C3.82663 6.75 3.54048 6.63147 3.3295 6.4205C3.11853 6.20952 3 5.92337 3 5.625ZM3 12C3 11.7016 3.11853 11.4155 3.3295 11.2045C3.54048 10.9935 3.82663 10.875 4.125 10.875H19.875C20.1734 10.875 20.4595 10.9935 20.6705 11.2045C20.8815 11.4155 21 11.7016 21 12C21 12.2984 20.8815 12.5845 20.6705 12.7955C20.4595 13.0065 20.1734 13.125 19.875 13.125H4.125C3.82663 13.125 3.54048 13.0065 3.3295 12.7955C3.11853 12.5845 3 12.2984 3 12ZM12 18.375C12 18.0766 12.1185 17.7905 12.3295 17.5795C12.5405 17.3685 12.8266 17.25 13.125 17.25H19.875C20.1734 17.25 20.4595 17.3685 20.6705 17.5795C20.8815 17.7905 21 18.0766 21 18.375C21 18.6734 20.8815 18.9595 20.6705 19.1705C20.4595 19.3815 20.1734 19.5 19.875 19.5H13.125C12.8266 19.5 12.5405 19.3815 12.3295 19.1705C12.1185 18.9595 12 18.6734 12 18.375Z" fill="black"/>
</svg>
