<svg width="51" height="24" viewBox="0 0 51 24" fill="none" xmlns="http://www.w3.org/2000/svg">
<path d="M24.533 0.899999H28.316V2.2H25.963V4.735H27.809V6.035H25.963V10H24.533V0.899999ZM31.8617 10.13C31.1684 10.13 30.6397 9.935 30.2757 9.545C29.9117 9.14633 29.7297 8.57867 29.7297 7.842V0.899999H31.1597V7.946C31.1597 8.258 31.2204 8.48333 31.3417 8.622C31.4717 8.76067 31.6537 8.83 31.8877 8.83C32.1217 8.83 32.2994 8.76067 32.4207 8.622C32.5507 8.48333 32.6157 8.258 32.6157 7.946V0.899999H33.9937V7.842C33.9937 8.57867 33.8117 9.14633 33.4477 9.545C33.0837 9.935 32.5551 10.13 31.8617 10.13ZM35.7922 0.899999H37.5862L38.9772 6.347H39.0032V0.899999H40.2772V10H38.8082L37.0922 3.357H37.0662V10H35.7922V0.899999ZM24.533 12.9H28.316V14.2H25.963V16.735H27.809V18.035H25.963V22H24.533V12.9ZM30.4678 12.9H32.4048L33.8868 22H32.4568L32.1968 20.193V20.219H30.5718L30.3118 22H28.9858L30.4678 12.9ZM32.0278 18.984L31.3908 14.486H31.3648L30.7408 18.984H32.0278ZM37.3502 22.13C36.6655 22.13 36.1412 21.935 35.7772 21.545C35.4219 21.155 35.2442 20.6047 35.2442 19.894V15.006C35.2442 14.2953 35.4219 13.745 35.7772 13.355C36.1412 12.965 36.6655 12.77 37.3502 12.77C38.0349 12.77 38.5549 12.965 38.9102 13.355C39.2742 13.745 39.4562 14.2953 39.4562 15.006V15.968H38.1042V14.915C38.1042 14.3517 37.8659 14.07 37.3892 14.07C36.9125 14.07 36.6742 14.3517 36.6742 14.915V19.998C36.6742 20.5527 36.9125 20.83 37.3892 20.83C37.8659 20.83 38.1042 20.5527 38.1042 19.998V18.607H39.4562V19.894C39.4562 20.6047 39.2742 21.155 38.9102 21.545C38.5549 21.935 38.0349 22.13 37.3502 22.13ZM42.2098 14.2H40.7148V12.9H45.1348V14.2H43.6398V22H42.2098V14.2ZM48.4661 22.13C47.7728 22.13 47.2484 21.935 46.8931 21.545C46.5378 21.1463 46.3601 20.5787 46.3601 19.842V19.322H47.7121V19.946C47.7121 20.5353 47.9591 20.83 48.4531 20.83C48.6958 20.83 48.8778 20.7607 48.9991 20.622C49.1291 20.4747 49.1941 20.2407 49.1941 19.92C49.1941 19.5387 49.1074 19.205 48.9341 18.919C48.7608 18.6243 48.4401 18.2733 47.9721 17.866C47.3828 17.346 46.9711 16.878 46.7371 16.462C46.5031 16.0373 46.3861 15.5607 46.3861 15.032C46.3861 14.3127 46.5681 13.758 46.9321 13.368C47.2961 12.9693 47.8248 12.77 48.5181 12.77C49.2028 12.77 49.7184 12.9693 50.0651 13.368C50.4204 13.758 50.5981 14.3213 50.5981 15.058V15.435H49.2461V14.967C49.2461 14.655 49.1854 14.4297 49.0641 14.291C48.9428 14.1437 48.7651 14.07 48.5311 14.07C48.0544 14.07 47.8161 14.3603 47.8161 14.941C47.8161 15.2703 47.9028 15.578 48.0761 15.864C48.2581 16.15 48.5831 16.4967 49.0511 16.904C49.6491 17.424 50.0608 17.8963 50.2861 18.321C50.5114 18.7457 50.6241 19.244 50.6241 19.816C50.6241 20.5613 50.4378 21.1333 50.0651 21.532C49.7011 21.9307 49.1681 22.13 48.4661 22.13Z" fill="#d8d8d8"/>
<path d="M19.7041 13.0307C19.7941 14.5807 19.0841 16.0707 17.8141 16.9807L18.5841 18.4707C18.8141 18.9207 18.8441 19.4507 18.6441 19.9207C18.4541 20.3907 18.0641 20.7607 17.5841 20.9207L16.7941 21.1707C16.4651 21.2811 16.1101 21.2875 15.7773 21.1891C15.4446 21.0907 15.1501 20.8922 14.9341 20.6207L12.8141 18.1207C11.9241 17.9707 11.0841 17.5907 10.3741 17.0207C9.87408 17.1707 9.37408 17.2507 8.87408 17.2507C7.99408 17.2507 7.11408 16.9807 6.37408 16.4607C5.84408 16.6207 5.30408 16.6907 4.75408 16.6807C3.96408 16.6907 3.18408 16.5307 2.45408 16.2307C1.75107 15.9176 1.15034 15.4131 0.720616 14.7747C0.290889 14.1363 0.0495086 13.3898 0.0240806 12.6207C-0.0559194 11.9007 0.0640806 11.1707 0.374081 10.5107C0.0840806 9.76068 0.0540806 8.94068 0.304081 8.18068C0.674081 7.23068 1.37408 6.44068 2.24408 5.94068C2.82408 4.25068 4.45408 3.12068 6.24408 3.24068C7.84408 1.74068 10.2941 1.58068 12.0741 2.87068C12.4941 2.76068 12.9341 2.70068 13.3741 2.70068C14.7341 2.67068 16.0241 3.27068 16.8741 4.34068C18.9141 4.87068 20.3741 6.69068 20.4541 8.81068C20.5041 9.92068 20.2041 11.0107 19.5941 11.9407C19.6641 12.3007 19.7041 12.6607 19.7041 13.0307ZM14.7041 11.6207C15.2741 11.6907 15.7241 12.1207 15.7241 12.6907C15.7241 12.9559 15.6187 13.2102 15.4312 13.3978C15.2437 13.5853 14.9893 13.6907 14.7241 13.6907H14.0941C13.7741 14.5907 13.2141 15.3807 12.4741 15.9807C12.7241 16.0707 12.9841 16.1207 13.2441 16.1907C18.3741 16.1207 17.7741 12.9907 17.7741 12.9407C17.7612 12.6005 17.6814 12.2661 17.5392 11.9568C17.397 11.6475 17.1952 11.3692 16.9453 11.138C16.6955 10.9067 16.4025 10.727 16.0831 10.609C15.7638 10.4911 15.4243 10.4373 15.0841 10.4507C14.8189 10.4507 14.5645 10.3453 14.377 10.1578C14.1894 9.97025 14.0841 9.71589 14.0841 9.45068C14.0841 9.18546 14.1894 8.93111 14.377 8.74357C14.5645 8.55603 14.8189 8.45068 15.0841 8.45068C16.3141 8.48068 17.4941 8.94068 18.4141 9.75068C18.4641 9.46068 18.4941 9.16068 18.4941 8.86068C18.4341 7.62068 17.8741 6.54068 15.6241 6.33068C14.3741 3.37068 11.2241 5.01068 11.2241 5.93068C11.1941 6.16068 11.4341 6.65068 11.4741 6.68068C11.7393 6.68068 11.9937 6.78603 12.1812 6.97357C12.3687 7.16111 12.4741 7.41546 12.4741 7.68068C12.4741 8.23068 12.0241 8.68068 11.4741 8.68068C10.9441 8.66068 10.4441 8.46068 10.0441 8.12068C9.56408 8.43068 9.01408 8.62068 8.44408 8.68068C7.87408 8.73068 7.40408 8.33068 7.37408 7.78068C7.35595 7.65009 7.36464 7.51719 7.3996 7.39007C7.43456 7.26295 7.49507 7.1443 7.57743 7.04135C7.65978 6.93841 7.76226 6.85333 7.8786 6.79132C7.99494 6.7293 8.1227 6.69166 8.25408 6.68068C8.41408 6.66068 9.19408 6.54068 9.19408 5.91068C9.19408 5.25068 9.44408 4.62068 9.87408 4.12068C8.95408 3.87068 7.96408 4.20068 6.96408 5.41068C5.12408 5.12068 4.37408 5.37068 3.82408 7.32068C2.87408 7.79068 2.37408 8.12068 2.15408 9.12068C3.23408 8.90068 4.34408 8.99068 5.37408 9.37068C5.87408 9.56068 6.15408 10.1207 5.96408 10.6607C5.77408 11.1807 5.19408 11.4407 4.67408 11.2507C3.94408 10.9307 3.12408 10.9107 2.37408 11.1907C2.05408 11.4607 2.05408 12.0207 2.05408 12.4607C2.05408 13.2007 2.42408 13.8907 3.05408 14.2907C3.58408 14.5607 4.17408 14.7007 4.76408 14.6907C4.61408 14.4307 4.48408 14.1607 4.37408 13.8807C4.29536 13.6238 4.31934 13.3463 4.44098 13.1067C4.56262 12.8671 4.77244 12.684 5.02631 12.5959C5.28018 12.5078 5.55831 12.5216 5.80221 12.6344C6.04611 12.7472 6.23677 12.9502 6.33408 13.2007C6.73408 14.3407 7.75408 15.1207 8.95408 15.2507C10.3241 15.1807 11.5441 14.3707 12.1441 13.1207C12.3741 11.7407 13.4841 11.6207 14.7041 11.6207ZM16.7041 19.0907L16.0841 17.7907L15.3741 17.9507L16.3741 19.2007L16.7041 19.0907ZM12.0541 10.4807C12.0628 10.2252 11.9733 9.97612 11.8041 9.78457C11.6348 9.59301 11.3987 9.47353 11.1441 9.45068C10.4341 9.41068 9.74408 9.65068 9.21408 10.1207C8.64408 10.7007 8.34408 11.5007 8.37408 12.3107C8.37408 12.5759 8.47944 12.8302 8.66697 13.0178C8.85451 13.2053 9.10886 13.3107 9.37408 13.3107C9.94408 13.3107 10.3741 12.8607 10.3741 12.3107C10.3741 12.0407 10.4441 11.7707 10.6041 11.5507C10.7241 11.4507 10.8741 11.4007 11.0341 11.4007C11.5841 11.4307 12.0541 11.0207 12.0541 10.4807Z" fill="#d8d8d8"/>
</svg>
