<svg width="24" height="24" viewBox="0 0 24 24" fill="none" xmlns="http://www.w3.org/2000/svg" class="icon">
<path d="M21.3301 12.9099C21.4201 14.4599 20.7101 15.95 19.4401 16.86L20.2101 18.35C20.4401 18.8 20.4701 19.3299 20.2701 19.7999C20.0801 20.2699 19.6901 20.6399 19.2101 20.7999L18.4201 21.0499C18.0911 21.1603 17.7361 21.1667 17.4033 21.0683C17.0705 20.97 16.7761 20.7715 16.5601 20.5L14.4401 18C13.5501 17.85 12.7101 17.4699 12.0001 16.8999C11.5001 17.0499 11.0001 17.1299 10.5001 17.1299C9.62006 17.1299 8.74006 16.8599 8.00006 16.3399C7.47006 16.4999 6.93006 16.5699 6.38006 16.5599C5.59006 16.5699 4.81006 16.41 4.08006 16.11C3.37704 15.7969 2.77632 15.2923 2.34659 14.6539C1.91687 14.0155 1.67549 13.2691 1.65006 12.4999C1.57006 11.7799 1.69006 11.0499 2.00006 10.3899C1.71006 9.63995 1.68006 8.81995 1.93006 8.05995C2.30006 7.10995 3.00006 6.31995 3.87006 5.81995C4.45006 4.12995 6.08006 2.99995 7.87006 3.11995C9.47006 1.61995 11.9201 1.45995 13.7001 2.74995C14.1201 2.63995 14.5601 2.57995 15.0001 2.57995C16.3601 2.54995 17.6501 3.14995 18.5001 4.21995C20.5401 4.74995 22.0001 6.56995 22.0801 8.68995C22.1301 9.79995 21.8301 10.8899 21.2201 11.8199C21.2901 12.1799 21.3301 12.5399 21.3301 12.9099ZM16.3301 11.4999C16.9001 11.5699 17.3501 11.9999 17.3501 12.5699C17.3501 12.8352 17.2447 13.0895 17.0572 13.2771C16.8696 13.4646 16.6153 13.5699 16.3501 13.5699H15.7201C15.4001 14.4699 14.8401 15.2599 14.1001 15.8599C14.3501 15.9499 14.6101 15.9999 14.8701 16.0699C20.0001 15.9999 19.4001 12.8699 19.4001 12.8199C19.3872 12.4797 19.3073 12.1454 19.1651 11.8361C19.0229 11.5268 18.8211 11.2485 18.5713 11.0172C18.3215 10.786 18.0285 10.6062 17.7091 10.4883C17.3897 10.3704 17.0502 10.3166 16.7101 10.3299C16.4448 10.3299 16.1905 10.2246 16.003 10.0371C15.8154 9.84952 15.7101 9.59517 15.7101 9.32995C15.7101 9.06473 15.8154 8.81038 16.003 8.62284C16.1905 8.43531 16.4448 8.32995 16.7101 8.32995C17.9401 8.35995 19.1201 8.81995 20.0401 9.62995C20.0901 9.33995 20.1201 9.03995 20.1201 8.73995C20.0601 7.49995 19.5001 6.41995 17.2501 6.20995C16.0001 3.24995 12.8501 4.88995 12.8501 5.80995C12.8201 6.03995 13.0601 6.52995 13.1001 6.55995C13.3653 6.55995 13.6196 6.66531 13.8072 6.85284C13.9947 7.04038 14.1001 7.29473 14.1001 7.55995C14.1001 8.10995 13.6501 8.55995 13.1001 8.55995C12.5701 8.53995 12.0701 8.33995 11.6701 7.99995C11.1901 8.30995 10.6401 8.49995 10.0701 8.55995C9.50006 8.60995 9.03006 8.20995 9.00006 7.65995C8.98193 7.52937 8.99061 7.39646 9.02558 7.26934C9.06054 7.14223 9.12104 7.02357 9.2034 6.92063C9.28576 6.81768 9.38824 6.7326 9.50458 6.67059C9.62092 6.60858 9.74868 6.57093 9.88006 6.55995C10.0401 6.53995 10.8201 6.41995 10.8201 5.78995C10.8201 5.12995 11.0701 4.49995 11.5001 3.99995C10.5801 3.74995 9.59006 4.07995 8.59006 5.28995C6.75006 4.99995 6.00006 5.24995 5.45006 7.19995C4.50006 7.66995 4.00006 7.99995 3.78006 8.99995C4.86006 8.77995 5.97006 8.86995 7.00006 9.24995C7.50006 9.43995 7.78006 9.99995 7.59006 10.5399C7.40006 11.0599 6.82006 11.3199 6.30006 11.1299C5.57006 10.8099 4.75006 10.7899 4.00006 11.0699C3.68006 11.3399 3.68006 11.8999 3.68006 12.3399C3.68006 13.0799 4.05006 13.7699 4.68006 14.1699C5.21006 14.4399 5.80006 14.5799 6.39006 14.5699C6.24006 14.3099 6.11006 14.0399 6.00006 13.7599C5.92133 13.503 5.94531 13.2256 6.06695 12.986C6.18859 12.7464 6.39841 12.5633 6.65228 12.4752C6.90616 12.3871 7.18429 12.4009 7.42819 12.5137C7.67209 12.6265 7.86274 12.8295 7.96006 13.0799C8.36006 14.2199 9.38006 14.9999 10.5801 15.1299C11.9501 15.0599 13.1701 14.2499 13.7701 12.9999C14.0001 11.6199 15.1101 11.4999 16.3301 11.4999ZM18.3301 18.9699L17.7101 17.6699L17.0001 17.8299L18.0001 19.08L18.3301 18.9699ZM13.6801 10.3599C13.6887 10.1045 13.5993 9.8554 13.43 9.66384C13.2608 9.47228 13.0246 9.35281 12.7701 9.32995C12.0601 9.28995 11.3701 9.52995 10.8401 9.99995C10.2701 10.5799 9.97006 11.3799 10.0001 12.1899C10.0001 12.4552 10.1054 12.7095 10.293 12.8971C10.4805 13.0846 10.7348 13.1899 11.0001 13.1899C11.5701 13.1899 12.0001 12.7399 12.0001 12.1899C12.0001 11.9199 12.0701 11.6499 12.2301 11.4299C12.3501 11.3299 12.5001 11.2799 12.6601 11.2799C13.2101 11.3099 13.6801 10.8999 13.6801 10.3599Z" fill="black"/>
</svg>
